<svg width="37" height="37" viewBox="0 0 37 37" fill="none" xmlns="http://www.w3.org/2000/svg">
<path d="M18.1612 6.3125C19.7582 6.3125 21.2898 6.94691 22.419 8.07616C23.5483 9.20541 24.1827 10.737 24.1827 12.334C24.1827 13.931 23.5483 15.4626 22.419 16.5919C21.2898 17.7211 19.7582 18.3555 18.1612 18.3555C16.5642 18.3555 15.0326 17.7211 13.9033 16.5919C12.7741 15.4626 12.1397 13.931 12.1397 12.334C12.1397 10.737 12.7741 9.20541 13.9033 8.07616C15.0326 6.94691 16.5642 6.3125 18.1612 6.3125ZM18.1612 21.3663C24.8149 21.3663 30.2042 24.0609 30.2042 27.3878V30.3985H6.11816V27.3878C6.11816 24.0609 11.5074 21.3663 18.1612 21.3663Z" fill="white"/>
</svg>
