<svg width="60" height="60" viewBox="0 0 60 60" fill="none" xmlns="http://www.w3.org/2000/svg">
<path d="M27.5 37.5L20 30M20 30L27.5 22.5M20 30H40M7.5 30C7.5 27.0453 8.08198 24.1194 9.21271 21.3896C10.3434 18.6598 12.0008 16.1794 14.0901 14.0901C16.1794 12.0008 18.6598 10.3434 21.3896 9.21271C24.1194 8.08198 27.0453 7.5 30 7.5C32.9547 7.5 35.8806 8.08198 38.6104 9.21271C41.3402 10.3434 43.8206 12.0008 45.9099 14.0901C47.9992 16.1794 49.6566 18.6598 50.7873 21.3896C51.918 24.1194 52.5 27.0453 52.5 30C52.5 35.9674 50.1295 41.6903 45.9099 45.9099C41.6903 50.1295 35.9674 52.5 30 52.5C24.0326 52.5 18.3097 50.1295 14.0901 45.9099C9.87053 41.6903 7.5 35.9674 7.5 30Z" stroke="black" stroke-width="2" stroke-linecap="round" stroke-linejoin="round"/>
</svg>
