<svg width="42" height="42" viewBox="0 0 42 42" fill="none" xmlns="http://www.w3.org/2000/svg">
<g clip-path="url(#clip0_2_33578)">
<path d="M36.2727 0H5.72727C2.56419 0 0 2.56419 0 5.72727V36.2727C0 39.4358 2.56419 42 5.72727 42H36.2727C39.4358 42 42 39.4358 42 36.2727V5.72727C42 2.56419 39.4358 0 36.2727 0Z" fill="#1D70FA"/>
<path d="M24.9277 13.832H31.5069V15.4691H24.9277V13.832Z" fill="white"/>
<path d="M34.1249 23.0316C34.1249 19.6143 31.4784 16.8438 28.2163 16.8438C24.9541 16.8438 22.3076 19.6143 22.3076 23.0316C22.3076 26.4489 24.7632 29.217 28.2163 29.217C30.8413 29.217 33.0844 28.062 33.8457 25.2891H31.0751C30.8208 25.7638 30.4422 26.1605 29.9798 26.4366C29.5174 26.7128 28.9887 26.8581 28.4501 26.8569C26.9014 26.8569 25.5388 25.7473 25.6199 23.8811H34.0795C34.1249 23.6091 34.1249 23.3275 34.1249 23.0316ZM25.6294 21.8169C25.8347 20.2801 26.9205 19.2993 28.2306 19.2993C29.5407 19.2993 30.6169 20.2801 30.8317 21.8169H25.6294Z" fill="white"/>
<path d="M21.2959 23.2913C21.0811 20.9193 18.3989 20.1199 18.3989 20.1199C19.4178 19.6426 20.6325 18.6666 20.6206 16.5165C20.6015 13.4142 17.3656 12.7842 16.3251 12.7842H7.875V28.9208H15.5519C16.6186 28.9208 17.7545 28.78 18.6542 28.3313C21.0811 27.1382 21.5059 25.6658 21.2959 23.2913ZM11.4259 15.5691H15.058C15.058 15.5691 17.2057 15.519 17.2057 17.4185C17.2057 19.318 15.058 19.2655 15.058 19.2655H11.4259V15.5691ZM15.2727 26.1812H11.4259V21.7688H15.2727C15.2727 21.7688 17.8309 21.7092 17.8309 23.9738C17.8309 26.2385 15.2727 26.1812 15.2727 26.1812Z" fill="white"/>
</g>
<defs>
<clipPath id="clip0_2_33578">
<rect width="42" height="42" fill="white"/>
</clipPath>
</defs>
</svg>
