<svg width="34" height="34" viewBox="0 0 34 34" fill="none" xmlns="http://www.w3.org/2000/svg">
<path d="M20.7123 21.773L12.227 13.2878C11.9371 12.9979 11.9371 12.517 12.227 12.2271C12.5169 11.9372 12.9977 11.9372 13.2877 12.2271L21.7729 20.7124C22.0628 21.0023 22.0628 21.4831 21.7729 21.773C21.483 22.063 21.0022 22.063 20.7123 21.773Z" fill="white"/>
<path d="M12.2271 21.773C11.9372 21.4831 11.9372 21.0023 12.2271 20.7124L20.7123 12.2271C21.0023 11.9372 21.4831 11.9372 21.773 12.2271C22.0629 12.517 22.0629 12.9979 21.773 13.2878L13.2877 21.773C12.9978 22.063 12.517 22.063 12.2271 21.773Z" fill="white"/>
</svg>
