<svg width="66" height="67" viewBox="0 0 66 67" fill="none" xmlns="http://www.w3.org/2000/svg">
<path d="M24.8258 53.8636H18.695C14.901 53.8636 11.2624 52.3564 8.57958 49.6737C5.89681 46.9909 4.38965 43.3523 4.38965 39.5583C4.38965 35.7643 5.89681 32.1256 8.57958 29.4429C11.2624 26.7601 14.901 25.2529 18.695 25.2529C19.8919 25.2525 21.0843 25.3983 22.2458 25.6872" stroke="#CCE0FF" stroke-width="3.80208" stroke-linecap="round" stroke-linejoin="round"/>
<path d="M20.7393 33.4274C20.7393 30.1893 21.5087 26.9975 22.9843 24.115C24.4599 21.2326 26.5993 18.7421 29.2262 16.8487C31.8531 14.9553 34.8924 13.7133 38.0935 13.2249C41.2946 12.7366 44.566 13.0159 47.6379 14.0399C50.7099 15.0639 53.4946 16.8033 55.7625 19.1146C58.0304 21.426 59.7166 24.2431 60.6821 27.334C61.6476 30.4249 61.8648 33.7009 61.3158 36.8922C60.7668 40.0835 59.4673 43.0986 57.5244 45.6891" stroke="#CCE0FF" stroke-width="3.80208" stroke-linecap="round" stroke-linejoin="round"/>
<path d="M30.4717 42.0876L39.1315 33.4277L47.7914 42.0876" stroke="#1D7AFC" stroke-width="3.80208" stroke-linecap="round" stroke-linejoin="round"/>
<path d="M39.1318 53.8639V33.4277" stroke="#1D7AFC" stroke-width="3.80208" stroke-linecap="round" stroke-linejoin="round"/>
</svg>
