<svg width="234" height="44" viewBox="0 0 234 44" fill="none" xmlns="http://www.w3.org/2000/svg">
<path fill-rule="evenodd" clip-rule="evenodd" d="M86.7095 16.9838C85.2844 17.2847 83.8676 17.6041 82.4592 17.9436C81.9465 18.067 81.6336 18.5789 81.7589 19.0862L81.7655 19.1061C74.1359 19.2286 66.508 19.4232 58.8838 19.6919C47.8701 20.0803 36.7869 20.7275 25.8116 21.74C14.9654 22.7405 11.9688 22.9975 2.63823 24.6805C2.37139 24.7286 1.85653 24.725 1.57962 24.8014C1.31629 24.874 1.12788 25.0008 1.00693 25.1249C0.852002 25.2823 0.762999 25.4637 0.725432 25.6622C0.685693 25.8786 0.697898 26.143 0.885718 26.4386C1.41558 27.2682 2.27091 27.4967 3.31361 27.323C4.21078 27.1734 5.29501 26.6411 6.14496 26.5811C20.2942 25.5829 34.4337 24.4744 48.5844 23.4966C70.2475 21.9998 91.846 21.306 113.448 20.9002C136.16 21.1211 158.86 21.9583 181.523 23.3644C196.282 24.2796 211.011 25.631 225.752 26.8151C225.741 26.8794 225.739 26.9464 225.742 27.0148C225.775 27.5359 226.23 27.9335 226.756 27.9023C227.289 27.8707 232.047 27.7414 232.924 27.5281C233.426 27.4059 233.622 27.099 233.687 26.9675C233.864 26.607 233.874 26.2151 233.479 25.8408C233.401 25.769 233.256 25.6503 232.989 25.5744C232.76 25.5078 232.194 25.4233 231.166 25.345C214.657 24.0736 198.167 22.5023 181.639 21.4758C174.26 21.019 166.877 20.6209 159.488 20.2866C169.516 20.1676 179.548 20.0312 189.596 19.8268C190.028 19.8192 190.238 19.7498 190.277 19.7334C190.828 19.498 190.866 19.0664 190.855 18.8218C190.852 18.7345 190.778 18.0138 189.968 17.9119C189.494 17.8519 186.072 17.7329 184.755 17.6625C178.427 17.3185 178.575 17.3718 172.102 17.0738C157.867 16.4205 143.654 15.9814 129.402 15.6238C123.72 15.4815 118.039 15.3659 112.355 15.2797C128.732 13.9149 145.45 13.9875 161.381 13.8329C169.599 13.7533 177.82 13.7244 186.038 13.8374C189.719 13.8881 193.399 14 197.08 14.0689C198.223 14.0902 199.363 14.1379 200.506 14.166C200.641 14.1692 202.413 14.1853 202.704 14.1793C203.465 14.1637 203.64 13.4926 203.647 13.4657C203.679 13.3394 203.804 12.4362 202.858 12.296C189.191 10.2688 174.866 10.7268 161.063 10.3855C136.905 9.78797 112.683 9.88809 88.5269 10.6077C77.8426 10.9259 67.1928 11.6011 56.5238 12.2727C51.1953 12.6082 45.8527 12.9641 40.5755 13.7905C40.046 13.8736 38.8461 13.9583 38.264 14.0568C37.9679 14.1071 37.7571 14.1867 37.6605 14.241C37.2375 14.477 37.1536 14.8246 37.147 15.0684C37.1429 15.2511 37.1827 15.8943 38.0548 16.0917C50.5165 18.9155 64.3409 17.1184 76.9927 17.0242C80.2314 17.0001 83.4692 16.9868 86.7095 16.9838ZM97.2595 17.0107C93.5072 17.5749 89.792 18.2456 86.1296 19.0443C95.238 18.931 104.347 18.9202 113.46 19.009C128.493 18.7267 143.525 18.5833 158.576 18.4057C148.844 18.0421 139.109 17.7592 129.358 17.5147C118.662 17.2464 107.961 17.0738 97.2595 17.0107ZM149.344 12.0417C129.095 11.7278 108.819 11.8954 88.5896 12.4981C77.9243 12.8158 67.2971 13.4899 56.6488 14.1603C52.4588 14.4241 48.2574 14.6991 44.089 15.2121C54.8613 16.5358 66.3373 15.212 76.9749 15.133C83.6931 15.083 90.4147 15.0791 97.1342 15.1185C114.217 12.5686 132.065 12.1982 149.344 12.0417Z" fill="#26A5C6"/>
</svg>
