<svg width="652" height="652" viewBox="0 0 652 652" fill="none" xmlns="http://www.w3.org/2000/svg">
<circle cx="326" cy="326" r="326" fill="#F5F5F5"/>
<path d="M218.917 368.854C195.23 368.854 176.062 349.686 176.062 326C176.062 302.313 195.23 283.146 218.917 283.146C242.603 283.146 261.771 302.313 261.771 326C261.771 349.686 242.603 368.854 218.917 368.854ZM218.917 306.521C208.164 306.521 199.438 315.247 199.438 326C199.438 336.752 208.164 345.479 218.917 345.479C229.669 345.479 238.396 336.752 238.396 326C238.396 315.247 229.669 306.521 218.917 306.521Z" fill="#292D32"/>
<path d="M437.083 368.854C413.397 368.854 394.229 349.686 394.229 326C394.229 302.313 413.397 283.146 437.083 283.146C460.77 283.146 479.938 302.313 479.938 326C479.938 349.686 460.77 368.854 437.083 368.854ZM437.083 306.521C426.331 306.521 417.604 315.247 417.604 326C417.604 336.752 426.331 345.479 437.083 345.479C447.836 345.479 456.563 336.752 456.563 326C456.563 315.247 447.836 306.521 437.083 306.521Z" fill="#292D32"/>
<path d="M328 368.854C304.313 368.854 285.146 349.686 285.146 326C285.146 302.313 304.313 283.146 328 283.146C351.687 283.146 370.854 302.313 370.854 326C370.854 349.686 351.687 368.854 328 368.854ZM328 306.521C317.247 306.521 308.521 315.247 308.521 326C308.521 336.752 317.247 345.479 328 345.479C338.752 345.479 347.479 336.752 347.479 326C347.479 315.247 338.752 306.521 328 306.521Z" fill="#292D32"/>
</svg>
