<svg width="42" height="42" viewBox="0 0 42 42" fill="none" xmlns="http://www.w3.org/2000/svg">
<g clip-path="url(#clip0_2_33552)">
<path d="M41.2809 7.51226C40.8986 3.93045 38.0698 1.10101 34.4877 0.719055C25.5046 -0.239685 16.4953 -0.239685 7.51258 0.719055C3.93045 1.10133 1.10133 3.93045 0.719055 7.51226C-0.239685 16.495 -0.239685 25.5046 0.719055 34.4874C1.10133 38.0695 3.93045 40.8986 7.51226 41.2809C16.495 42.2397 25.5046 42.2397 34.4877 41.2809C38.0698 40.8986 40.8986 38.0695 41.2809 34.4874C42.2397 25.5046 42.2397 16.4953 41.2809 7.51226Z" fill="url(#paint0_radial_2_33552)"/>
<path d="M38.9965 9.03139C38.6575 5.853 36.1472 3.3424 32.9685 3.00306C24.9973 2.15263 17.0025 2.15263 9.03139 3.00306C5.853 3.3424 3.3424 5.853 3.00306 9.03139C2.15263 17.0025 2.15263 24.9973 3.00306 32.9682C3.3424 36.1469 5.853 38.6575 9.03139 38.9965C17.0025 39.8472 24.9973 39.8472 32.9682 38.9965C36.1469 38.6575 38.6575 36.1469 38.9965 32.9682C39.8472 24.9973 39.8472 17.0025 38.9965 9.03139Z" fill="url(#paint1_linear_2_33552)"/>
<path d="M0.628906 33.6172C0.657745 33.9075 0.687546 34.1978 0.718628 34.4881C1.10091 38.0699 3.93002 40.8991 7.51216 41.2813C16.4949 42.2401 25.5045 42.2401 34.4873 41.2813C38.0694 40.8991 40.8982 38.0699 41.2805 34.4881C41.3116 34.1978 41.3414 33.9075 41.3705 33.6172H0.628906Z" fill="url(#paint2_linear_2_33552)"/>
<path d="M41.2814 34.4877C41.7966 29.661 42.0344 24.8266 41.9959 19.9929L32.3957 10.3927C31.1963 9.02347 29.4445 8.16887 27.386 8.09485C23.1528 7.94232 18.9061 7.95001 14.6722 8.09549C11.1557 8.21662 8.69672 10.5801 8.0661 14.054C7.95491 14.6673 7.88826 15.2886 7.80078 15.9064V26.0904C7.84917 26.4205 7.9203 26.7489 7.94241 27.0809C8.0834 29.1938 8.95178 31.0037 10.3421 32.228L20.1115 41.9971C24.9059 42.0308 29.7005 41.7924 34.4882 41.2813C38.0703 40.899 40.8991 38.0699 41.2814 34.4877Z" fill="url(#paint3_linear_2_33552)"/>
<path d="M41.2806 34.4874C40.8986 38.0689 38.0689 40.8987 34.4874 41.2806C29.7004 41.7914 24.9048 42.0301 20.1111 41.9965L10.3564 32.2418C11.4873 33.2316 12.9613 33.8344 14.6717 33.8988C18.9047 34.0577 23.1523 34.0535 27.3853 33.901C31.2138 33.7626 33.9843 30.929 34.1038 27.1004C34.2314 23.0354 34.2314 18.9598 34.1038 14.8948C34.0494 13.1285 33.4293 11.5744 32.4014 10.3984L41.9955 19.9926C42.0333 24.8257 41.7955 29.6607 41.2806 34.4874Z" fill="url(#paint4_linear_2_33552)"/>
<path d="M25.9555 16.4517C24.7257 15.1126 22.961 14.2725 20.9997 14.2725C17.2845 14.2725 14.2725 17.2845 14.2725 20.9997C14.2725 22.961 15.1126 24.7257 16.4517 25.9555L32.0162 41.52C32.84 41.4482 33.6639 41.3684 34.4871 41.2806C38.0692 40.8983 40.8983 38.0692 41.2806 34.4871C41.3684 33.6639 41.4482 32.84 41.52 32.0162L25.9555 16.4517Z" fill="url(#paint5_linear_2_33552)"/>
<path d="M41.9186 25.5239L29.3922 12.9978C29.1 12.6142 28.6395 12.3652 28.1201 12.3652C27.2363 12.3652 26.5195 13.0817 26.5195 13.9658C26.5195 14.4852 26.7685 14.9457 27.1521 15.2379L41.6947 29.7808C41.7934 28.3623 41.868 26.9431 41.9186 25.5239Z" fill="url(#paint6_linear_2_33552)"/>
<path d="M7.80078 15.9064C7.88826 15.2886 7.95491 14.6673 8.0661 14.054C8.69639 10.5801 11.1557 8.21662 14.6722 8.09549C18.9061 7.95001 23.1528 7.94232 27.386 8.09485C31.2133 8.23264 33.9851 11.0666 34.1046 14.8951C34.2318 18.9605 34.2318 23.0357 34.1046 27.1011C33.9851 30.9296 31.2143 33.7632 27.3864 33.9014C23.1531 34.0542 18.9054 34.058 14.6725 33.8991C10.8446 33.7552 8.19844 30.9149 7.94241 27.0806C7.9203 26.7489 7.84917 26.4202 7.80078 26.0901C7.80078 22.6954 7.80078 19.3008 7.80078 15.9064ZM21.004 31.6324C22.9413 31.6324 24.8806 31.6904 26.8154 31.6189C29.8489 31.5064 31.7148 29.696 31.7856 26.6653C31.8734 22.889 31.8734 19.1075 31.7856 15.3309C31.7148 12.3009 29.8476 10.4481 26.8154 10.3837C22.9666 10.3023 19.1137 10.303 15.265 10.3837C12.2558 10.4468 10.3844 12.2621 10.3027 15.2588C10.1989 19.0829 10.1989 22.9137 10.3027 26.7377C10.3844 29.7341 12.2558 31.5074 15.2653 31.6189C17.1757 31.69 19.091 31.6324 21.004 31.6324Z" fill="url(#paint7_linear_2_33552)"/>
<path d="M7.80078 15.9064C7.88826 15.2886 7.95491 14.6673 8.0661 14.054C8.69639 10.5801 11.1557 8.21662 14.6722 8.09549C18.9061 7.95001 23.1528 7.94232 27.386 8.09485C31.2133 8.23264 33.9851 11.0666 34.1046 14.8951C34.2318 18.9605 34.2318 23.0357 34.1046 27.1011C33.9851 30.9296 31.2143 33.7632 27.3864 33.9014C23.1531 34.0542 18.9054 34.058 14.6725 33.8991C10.8446 33.7552 8.19844 30.9149 7.94241 27.0806C7.9203 26.7489 7.84917 26.4202 7.80078 26.0901C7.80078 22.6954 7.80078 19.3008 7.80078 15.9064ZM21.004 31.6324C22.9413 31.6324 24.8806 31.6904 26.8154 31.6189C29.8489 31.5064 31.7148 29.696 31.7856 26.6653C31.8734 22.889 31.8734 19.1075 31.7856 15.3309C31.7148 12.3009 29.8476 10.4481 26.8154 10.3837C22.9666 10.3023 19.1137 10.303 15.265 10.3837C12.2558 10.4468 10.3844 12.2621 10.3027 15.2588C10.1989 19.0829 10.1989 22.9137 10.3027 26.7377C10.3844 29.7341 12.2558 31.5074 15.2653 31.6189C17.1757 31.69 19.091 31.6324 21.004 31.6324Z" fill="white"/>
<path d="M21.0006 14.2734C17.2855 14.2734 14.2734 17.2852 14.2734 21.0003C14.2734 24.7158 17.2855 27.7275 21.0006 27.7275C24.7161 27.7275 27.7278 24.7158 27.7278 21.0003C27.7278 17.2852 24.7161 14.2734 21.0006 14.2734ZM21.0006 25.4114C18.5644 25.4114 16.5895 23.4366 16.5895 21.0003C16.5895 18.5641 18.5644 16.5892 21.0006 16.5892C23.4369 16.5892 25.4117 18.5641 25.4117 21.0003C25.4117 23.4366 23.4369 25.4114 21.0006 25.4114Z" fill="white"/>
<path d="M29.7203 13.9668C29.7203 14.8505 29.0039 15.567 28.1201 15.567C27.2363 15.567 26.5195 14.8505 26.5195 13.9668C26.5195 13.0827 27.2363 12.3662 28.1201 12.3662C29.0039 12.3662 29.7203 13.0827 29.7203 13.9668Z" fill="white"/>
</g>
<defs>
<radialGradient id="paint0_radial_2_33552" cx="0" cy="0" r="1" gradientUnits="userSpaceOnUse" gradientTransform="translate(8.60976 36.7046) scale(46.3186)">
<stop stop-color="#FAE100"/>
<stop offset="0.0544" stop-color="#FADC04"/>
<stop offset="0.1167" stop-color="#FBCE0E"/>
<stop offset="0.1829" stop-color="#FCB720"/>
<stop offset="0.2514" stop-color="#FE9838"/>
<stop offset="0.3054" stop-color="#FF7950"/>
<stop offset="0.4922" stop-color="#FF1C74"/>
<stop offset="1" stop-color="#6C1CD1"/>
</radialGradient>
<linearGradient id="paint1_linear_2_33552" x1="16.1086" y1="18.2486" x2="-55.0443" y2="-21.7749" gradientUnits="userSpaceOnUse">
<stop stop-color="#A1B5D8" stop-opacity="0"/>
<stop offset="0.3094" stop-color="#90A2BD" stop-opacity="0.309804"/>
<stop offset="0.7554" stop-color="#7C8B9C" stop-opacity="0.756863"/>
<stop offset="1" stop-color="#748290"/>
</linearGradient>
<linearGradient id="paint2_linear_2_33552" x1="20.9996" y1="37.0757" x2="20.9996" y2="43.6225" gradientUnits="userSpaceOnUse">
<stop stop-color="#FAE100" stop-opacity="0"/>
<stop offset="0.3068" stop-color="#FCA800" stop-opacity="0.305882"/>
<stop offset="0.6275" stop-color="#FE7300" stop-opacity="0.627451"/>
<stop offset="0.8685" stop-color="#FF5200" stop-opacity="0.866667"/>
<stop offset="1" stop-color="#FF4500"/>
</linearGradient>
<linearGradient id="paint3_linear_2_33552" x1="18.6111" y1="18.5515" x2="8.21675" y2="8.15722" gradientUnits="userSpaceOnUse">
<stop stop-color="#833AB4" stop-opacity="0"/>
<stop offset="1" stop-color="#833AB4"/>
</linearGradient>
<linearGradient id="paint4_linear_2_33552" x1="28.7844" y1="38.4139" x2="23.5964" y2="13.9563" gradientUnits="userSpaceOnUse">
<stop stop-color="#833AB4" stop-opacity="0"/>
<stop offset="1" stop-color="#833AB4"/>
</linearGradient>
<linearGradient id="paint5_linear_2_33552" x1="30.7585" y1="30.7585" x2="9.92061" y2="9.9206" gradientUnits="userSpaceOnUse">
<stop stop-color="#833AB4" stop-opacity="0"/>
<stop offset="1" stop-color="#833AB4"/>
</linearGradient>
<linearGradient id="paint6_linear_2_33552" x1="32.3045" y1="18.1501" x2="25.4138" y2="11.2595" gradientUnits="userSpaceOnUse">
<stop stop-color="#833AB4" stop-opacity="0"/>
<stop offset="1" stop-color="#833AB4"/>
</linearGradient>
<linearGradient id="paint7_linear_2_33552" x1="29.3396" y1="12.7193" x2="12.3496" y2="29.7092" gradientUnits="userSpaceOnUse">
<stop stop-color="#833AB4"/>
<stop offset="0.0922" stop-color="#9C3495"/>
<stop offset="0.2927" stop-color="#DC2546"/>
<stop offset="0.392" stop-color="#FD1D1D"/>
<stop offset="0.5589" stop-color="#FC6831"/>
<stop offset="0.6887" stop-color="#FC9B40"/>
<stop offset="0.7521" stop-color="#FCAF45"/>
<stop offset="0.7806" stop-color="#FDB750"/>
<stop offset="0.8656" stop-color="#FECB6A"/>
<stop offset="0.9415" stop-color="#FFD87A"/>
<stop offset="1" stop-color="#FFDC80"/>
</linearGradient>
<clipPath id="clip0_2_33552">
<rect width="42" height="42" fill="white"/>
</clipPath>
</defs>
</svg>
