<svg width="74" height="74" viewBox="0 0 74 74" fill="none" xmlns="http://www.w3.org/2000/svg">
<rect width="74" height="74" rx="4" fill="#0CA784"/>
<path d="M52.617 35.2903C53.8268 37.0895 54.7389 39.1093 55.2612 41.2716C54.9784 41.2577 54.6912 41.25 54.4 41.25C47.2867 41.25 40.9717 44.6457 37.0019 49.8817C35.2129 47.5161 32.948 45.5341 30.3427 44.0662C27.0674 42.2208 23.3659 41.2507 19.6003 41.25H19.6C19.3088 41.25 19.0216 41.2577 18.7388 41.2716C19.2611 39.1093 20.1732 37.0895 21.383 35.2903L36.4466 41.2692L37 41.4888L37.5534 41.2692L52.617 35.2903ZM37 15.6136L61.9308 25.5L36.9996 35.3865L15.9183 27.0379L13.8351 26.2129L13.8359 26.1935L12.8433 25.8012L12.0751 25.4976L37 15.6136ZM13.8029 26.9711L13.8673 28.4958L15.1353 58.5H12.465L13.7907 27.2598L13.8029 26.9711ZM37 21.125C36.0252 21.125 35.0635 21.315 34.2894 21.6961C33.6049 22.0331 32.6 22.779 32.6 24.0625C32.6 25.346 33.6049 26.0919 34.2894 26.4289C35.0635 26.81 36.0252 27 37 27C37.9748 27 38.9365 26.81 39.7106 26.4289C40.3951 26.0919 41.4 25.346 41.4 24.0625C41.4 22.779 40.3951 22.0331 39.7106 21.6961C38.9365 21.315 37.9748 21.125 37 21.125Z" stroke="white" stroke-width="3"/>
</svg>
