<svg width="42" height="42" viewBox="0 0 42 42" fill="none" xmlns="http://www.w3.org/2000/svg">
<g clip-path="url(#clip0_515_2570)">
<path d="M36.2727 0H5.72727C2.56419 0 0 2.56419 0 5.72727V36.2727C0 39.4358 2.56419 42 5.72727 42H36.2727C39.4358 42 42 39.4358 42 36.2727V5.72727C42 2.56419 39.4358 0 36.2727 0Z" fill="#0077B5"/>
<path d="M15.1298 11.4545C15.1298 12.1625 14.9199 12.8546 14.5265 13.4432C14.1332 14.0319 13.5742 14.4907 12.9201 14.7616C12.266 15.0325 11.5463 15.1034 10.8519 14.9653C10.1576 14.8272 9.51974 14.4863 9.01913 13.9857C8.51852 13.4851 8.1776 12.8472 8.03948 12.1529C7.90137 11.4585 7.97225 10.7388 8.24318 10.0847C8.51411 9.43064 8.97291 8.87159 9.56156 8.47826C10.1502 8.08494 10.8423 7.875 11.5503 7.875C12.4996 7.875 13.4101 8.25213 14.0814 8.92342C14.7527 9.59472 15.1298 10.5052 15.1298 11.4545Z" fill="white"/>
<path d="M14.3184 17.4209V33.2354C14.319 33.352 14.2966 33.4677 14.2524 33.5756C14.2081 33.6836 14.143 33.7818 14.0608 33.8645C13.9785 33.9472 13.8807 34.0128 13.7729 34.0576C13.6652 34.1024 13.5497 34.1255 13.433 34.1255H9.66019C9.54353 34.1258 9.42795 34.103 9.3201 34.0585C9.21226 34.014 9.11427 33.9487 9.03177 33.8662C8.94928 33.7837 8.8839 33.6857 8.8394 33.5778C8.7949 33.47 8.77215 33.3544 8.77246 33.2377V17.4209C8.77246 17.1855 8.86599 16.9597 9.03247 16.7932C9.19896 16.6267 9.42475 16.5332 9.66019 16.5332H13.433C13.6681 16.5338 13.8932 16.6276 14.0592 16.7941C14.2252 16.9605 14.3184 17.1859 14.3184 17.4209Z" fill="white"/>
<path d="M34.0398 25.6537V33.3091C34.0401 33.4164 34.0192 33.5227 33.9783 33.6218C33.9374 33.721 33.8773 33.8111 33.8014 33.8869C33.7256 33.9628 33.6355 34.0229 33.5363 34.0638C33.4372 34.1047 33.3309 34.1256 33.2236 34.1253H29.1668C29.0596 34.1256 28.9533 34.1047 28.8541 34.0638C28.755 34.0229 28.6649 33.9628 28.589 33.8869C28.5132 33.8111 28.4531 33.721 28.4122 33.6218C28.3713 33.5227 28.3504 33.4164 28.3507 33.3091V25.8899C28.3507 24.7827 28.6752 21.0408 25.456 21.0408C22.9623 21.0408 22.454 23.6014 22.3537 24.7516V33.3091C22.3538 33.5235 22.2694 33.7293 22.1189 33.8821C21.9685 34.0348 21.7639 34.1221 21.5495 34.1253H17.6311C17.5241 34.1253 17.4181 34.1042 17.3192 34.0631C17.2203 34.0221 17.1305 33.9619 17.0549 33.8861C16.9793 33.8103 16.9194 33.7203 16.8786 33.6213C16.8379 33.5223 16.8171 33.4162 16.8174 33.3091V17.3515C16.8171 17.2445 16.8379 17.1384 16.8786 17.0394C16.9194 16.9404 16.9793 16.8504 17.0549 16.7746C17.1305 16.6988 17.2203 16.6386 17.3192 16.5976C17.4181 16.5565 17.5241 16.5354 17.6311 16.5354H21.5495C21.766 16.5354 21.9736 16.6214 22.1266 16.7744C22.2797 16.9275 22.3657 17.1351 22.3657 17.3515V18.7308C23.2916 17.342 24.6638 16.2705 27.5918 16.2705C34.078 16.2705 34.0398 22.3271 34.0398 25.6537Z" fill="white"/>
</g>
<defs>
<clipPath id="clip0_515_2570">
<rect width="42" height="42" fill="white"/>
</clipPath>
</defs>
</svg>
