<svg width="22" height="31" viewBox="0 0 22 31" fill="none" xmlns="http://www.w3.org/2000/svg">
<path d="M11.1607 14.8948C10.1626 14.8948 9.20531 14.4983 8.49953 13.7925C7.79375 13.0868 7.39724 12.1295 7.39724 11.1314C7.39724 10.1333 7.79375 9.17601 8.49953 8.47023C9.20531 7.76445 10.1626 7.36794 11.1607 7.36794C12.1588 7.36794 13.1161 7.76445 13.8218 8.47023C14.5276 9.17601 14.9241 10.1333 14.9241 11.1314C14.9241 11.6256 14.8268 12.115 14.6377 12.5716C14.4485 13.0282 14.1713 13.4431 13.8218 13.7925C13.4724 14.142 13.0575 14.4192 12.6009 14.6083C12.1443 14.7975 11.6549 14.8948 11.1607 14.8948ZM11.1607 0.59375C8.36593 0.59375 5.68564 1.70396 3.70945 3.68015C1.73326 5.65634 0.623047 8.33663 0.623047 11.1314C0.623047 19.0346 11.1607 30.7013 11.1607 30.7013C11.1607 30.7013 21.6983 19.0346 21.6983 11.1314C21.6983 8.33663 20.5881 5.65634 18.6119 3.68015C16.6357 1.70396 13.9554 0.59375 11.1607 0.59375Z" fill="white"/>
</svg>
