<svg width="96" height="72" viewBox="0 0 96 72" fill="none" xmlns="http://www.w3.org/2000/svg">
<path d="M10.1205 31.3433C10.7179 30.1485 11.614 29.1118 12.8088 28.2333C14.0387 27.3548 15.6201 26.9156 17.5528 26.9156C19.1693 26.9156 20.4871 27.267 21.5061 27.9698C22.5604 28.6726 23.0875 29.9377 23.0875 31.765V47.1566H26.7773V48H14.8645V47.1566H18.5543V32.134C18.5543 30.7635 18.3083 29.762 17.8164 29.1294C17.3595 28.4969 16.6216 28.1806 15.6025 28.1806C14.8997 28.1806 14.2144 28.3739 13.5468 28.7604C12.9142 29.147 12.3344 29.639 11.8073 30.2364C11.3153 30.8337 10.9112 31.4838 10.5949 32.1867C10.2787 32.8543 10.1205 33.4869 10.1205 34.0843V47.1566H13.8103V48H1.8976V47.1566H5.58738V28.1806H1.8976V27.3372H10.1205V31.3433ZM38.8613 13.4215V12.5781H47.4005V47.1566H51.4065V48H42.8673V45.259C42.2348 46.1727 41.4441 46.9809 40.4953 47.6837C39.5465 48.3865 38.3693 48.738 36.9637 48.738C35.9095 48.738 34.8025 48.4393 33.6429 47.8419C32.4832 47.2445 31.429 46.4362 30.4802 45.4172C29.5314 44.3981 28.7407 43.2209 28.1082 41.8855C27.5108 40.515 27.2121 39.0918 27.2121 37.6159C27.2121 36.2454 27.4932 34.9101 28.0555 33.6099C28.6177 32.2745 29.3557 31.0973 30.2694 30.0782C31.183 29.024 32.2372 28.1806 33.432 27.5481C34.6268 26.9156 35.8567 26.5993 37.1218 26.5993C39.6519 26.5993 41.5671 27.5481 42.8673 29.4457V13.4215H38.8613ZM32.6941 36.2981V38.881C32.6941 40.6029 32.7819 42.0436 32.9576 43.2033C33.1685 44.3629 33.4496 45.2942 33.801 45.997C34.1876 46.6647 34.662 47.1566 35.2242 47.4729C35.7865 47.754 36.4366 47.8946 37.1745 47.8946C38.3342 47.8946 39.3708 47.5256 40.2845 46.7876C41.2333 46.0497 42.0942 45.0306 42.8673 43.7304V31.396C42.6213 30.9743 42.3226 30.535 41.9712 30.0782C41.655 29.6214 41.2684 29.1997 40.8116 28.8132C40.3899 28.3915 39.8804 28.0576 39.283 27.8116C38.7207 27.5657 38.0706 27.4427 37.3327 27.4427C35.6459 27.4427 34.4511 28.1103 33.7483 29.4457C33.0455 30.7459 32.6941 33.03 32.6941 36.2981ZM51.2789 47.1566H55.2322V28.1806H51.3316V27.3372H55.2322V25.0707C55.2322 23.7705 55.2849 22.3473 55.3903 20.8011C55.4958 19.2549 55.7944 17.8844 56.2864 16.6896C56.9892 15.038 57.9029 13.8783 59.0274 13.2107C60.1519 12.543 61.2764 12.2091 62.4009 12.2091C63.8768 12.2091 65.0365 12.5781 65.8798 13.3161C66.7584 14.054 67.1976 14.8447 67.1976 15.6881C67.1976 16.1801 67.0571 16.6193 66.7759 17.0059C66.5299 17.3573 66.1083 17.533 65.5109 17.533C65.0189 17.533 64.5972 17.3924 64.2458 17.1113C63.8944 16.795 63.7187 16.3558 63.7187 15.7935C63.7187 15.4421 63.8065 15.1258 63.9822 14.8447C64.1579 14.5284 64.4215 14.2825 64.7729 14.1067C64.8432 14.0716 64.8783 14.0013 64.8783 13.8959C64.8783 13.7553 64.6499 13.5796 64.1931 13.3688C63.7714 13.1579 63.2091 13.0525 62.5063 13.0525C60.679 13.0525 59.7654 14.3703 59.7654 17.0059V27.3372H64.035V28.1806H59.7654V47.1566H63.7187V48H51.2789V47.1566Z" fill="white"/>
<path d="M70.618 33.0879H69.7834L67.2723 29.2883V33.0879H66.4377V27.9925H67.2723L69.7834 31.7848V27.9925H70.618V33.0879ZM72.5486 28.6733V30.1668H74.3056V30.8477H72.5486V32.407H74.5253V33.0879H71.714V27.9925H74.5253V28.6733H72.5486ZM76.3878 27.9998V33.0879H75.5532V27.9998H76.3878ZM78.3182 32.4144H80.0386V33.0879H77.4836V27.9998H78.3182V32.4144ZM81.5419 32.3631H83.9065V33.0879H80.5535V32.4363L82.9109 28.7246H80.5535V27.9998H83.9065V28.6514L81.5419 32.3631ZM68.0996 34.9998C68.6414 34.9998 69.1148 35.1047 69.5199 35.3146C69.9299 35.5196 70.2447 35.8173 70.4643 36.2078C70.6888 36.5933 70.8011 37.0448 70.8011 37.5621C70.8011 38.0795 70.6888 38.5285 70.4643 38.9092C70.2447 39.2899 69.9299 39.5827 69.5199 39.7877C69.1148 39.9878 68.6414 40.0879 68.0996 40.0879H66.4377V34.9998H68.0996ZM68.0996 39.407C68.6951 39.407 69.1514 39.246 69.4686 38.9239C69.7859 38.6017 69.9445 38.1478 69.9445 37.5621C69.9445 36.9716 69.7859 36.5104 69.4686 36.1785C69.1514 35.8466 68.6951 35.6807 68.0996 35.6807H67.2723V39.407H68.0996ZM72.4628 35.6733V37.1668H74.2198V37.8477H72.4628V39.407H74.4395V40.0879H71.6282V34.9925H74.4395V35.6733H72.4628ZM77.1439 40.1391C76.8023 40.1391 76.4948 40.0806 76.2215 39.9634C75.9482 39.8414 75.7334 39.6706 75.5773 39.451C75.4211 39.2313 75.343 38.9751 75.343 38.6823H76.2361C76.2557 38.9019 76.3411 39.0825 76.4924 39.224C76.6486 39.3656 76.8658 39.4363 77.1439 39.4363C77.4319 39.4363 77.6564 39.368 77.8175 39.2313C77.9785 39.0898 78.0591 38.9092 78.0591 38.6896C78.0591 38.5188 78.0078 38.3797 77.9053 38.2723C77.8077 38.1649 77.6833 38.0819 77.532 38.0234C77.3855 37.9648 77.1806 37.9014 76.917 37.833C76.5851 37.7452 76.3142 37.6573 76.1044 37.5695C75.8994 37.4767 75.7237 37.3352 75.5773 37.1449C75.4308 36.9545 75.3576 36.7007 75.3576 36.3835C75.3576 36.0906 75.4308 35.8344 75.5773 35.6148C75.7237 35.3951 75.9287 35.2268 76.1922 35.1096C76.4558 34.9925 76.7608 34.9339 77.1073 34.9339C77.6003 34.9339 78.0029 35.0584 78.3153 35.3073C78.6325 35.5513 78.8083 35.8881 78.8424 36.3176H77.92C77.9053 36.1321 77.8175 35.9735 77.6564 35.8417C77.4954 35.7099 77.283 35.6441 77.0195 35.6441C76.7803 35.6441 76.5851 35.7051 76.4338 35.8271C76.2825 35.9491 76.2069 36.1248 76.2069 36.3542C76.2069 36.5104 76.2532 36.6397 76.346 36.7422C76.4436 36.8398 76.5656 36.9179 76.712 36.9765C76.8584 37.035 77.0585 37.0985 77.3123 37.1668C77.6491 37.2595 77.9224 37.3523 78.1323 37.445C78.347 37.5377 78.5276 37.6817 78.674 37.877C78.8253 38.0673 78.901 38.3235 78.901 38.6457C78.901 38.9043 78.8302 39.1484 78.6887 39.3778C78.552 39.6071 78.3495 39.7926 78.081 39.9341C77.8175 40.0708 77.5051 40.1391 77.1439 40.1391ZM80.7204 34.9998V40.0879H79.8858V34.9998H80.7204ZM85.4986 36.464C85.3668 36.2102 85.1838 36.0199 84.9495 35.893C84.7152 35.7612 84.4443 35.6953 84.1369 35.6953C83.8001 35.6953 83.4999 35.7709 83.2364 35.9222C82.9728 36.0735 82.7654 36.2883 82.6141 36.5665C82.4677 36.8447 82.3945 37.1668 82.3945 37.5329C82.3945 37.8989 82.4677 38.2235 82.6141 38.5066C82.7654 38.7848 82.9728 38.9995 83.2364 39.1508C83.4999 39.3021 83.8001 39.3778 84.1369 39.3778C84.5908 39.3778 84.9593 39.2509 85.2423 38.9971C85.5254 38.7433 85.6987 38.3992 85.7621 37.9648H83.8513V37.2986H86.6553V37.9502C86.6016 38.3455 86.4601 38.7091 86.2307 39.041C86.0062 39.3729 85.7109 39.6389 85.3448 39.839C84.9837 40.0342 84.581 40.1318 84.1369 40.1318C83.6586 40.1318 83.2217 40.022 82.8264 39.8024C82.4311 39.5779 82.1163 39.2679 81.882 38.8726C81.6526 38.4773 81.5379 38.0307 81.5379 37.5329C81.5379 37.035 81.6526 36.5885 81.882 36.1931C82.1163 35.7978 82.4311 35.4903 82.8264 35.2707C83.2266 35.0462 83.6634 34.9339 84.1369 34.9339C84.6786 34.9339 85.1594 35.0681 85.5791 35.3366C86.0037 35.6001 86.3112 35.9759 86.5015 36.464H85.4986ZM91.6587 40.0879H90.8241L88.313 36.2883V40.0879H87.4784V34.9925H88.313L90.8241 38.7848V34.9925H91.6587V40.0879ZM69.432 41.9998V42.6807H67.2723V44.1815H68.9562V44.8623H67.2723V47.0879H66.4377V41.9998H69.432ZM71.0401 41.9998V47.0879H70.2055V41.9998H71.0401ZM75.4229 41.9998V42.6807H74.0686V47.0879H73.234V42.6807H71.8723V41.9998H75.4229ZM79.365 44.0863V44.7891H76.356V44.0863H79.365ZM82.8714 47.1391C82.398 47.1391 81.9612 47.0293 81.561 46.8097C81.1656 46.5852 80.8508 46.2753 80.6166 45.8799C80.3872 45.4797 80.2725 45.0307 80.2725 44.5329C80.2725 44.035 80.3872 43.5885 80.6166 43.1931C80.8508 42.7978 81.1656 42.4903 81.561 42.2707C81.9612 42.0462 82.398 41.9339 82.8714 41.9339C83.3497 41.9339 83.7865 42.0462 84.1819 42.2707C84.5821 42.4903 84.8969 42.7978 85.1263 43.1931C85.3557 43.5885 85.4704 44.035 85.4704 44.5329C85.4704 45.0307 85.3557 45.4797 85.1263 45.8799C84.8969 46.2753 84.5821 46.5852 84.1819 46.8097C83.7865 47.0293 83.3497 47.1391 82.8714 47.1391ZM82.8714 46.4144C83.2082 46.4144 83.5083 46.3387 83.7719 46.1874C84.0355 46.0312 84.2404 45.8116 84.3869 45.5285C84.5382 45.2406 84.6138 44.9087 84.6138 44.5329C84.6138 44.1571 84.5382 43.8276 84.3869 43.5445C84.2404 43.2615 84.0355 43.0443 83.7719 42.893C83.5083 42.7417 83.2082 42.666 82.8714 42.666C82.5347 42.666 82.2345 42.7417 81.9709 42.893C81.7074 43.0443 81.5 43.2615 81.3487 43.5445C81.2022 43.8276 81.129 44.1571 81.129 44.5329C81.129 44.9087 81.2022 45.2406 81.3487 45.5285C81.5 45.8116 81.7074 46.0312 81.9709 46.1874C82.2345 46.3387 82.5347 46.4144 82.8714 46.4144ZM87.1189 41.9998V45.243C87.1189 45.6286 87.219 45.919 87.4191 46.1142C87.6241 46.3094 87.9071 46.407 88.2683 46.407C88.6344 46.407 88.9174 46.3094 89.1175 46.1142C89.3225 45.919 89.425 45.6286 89.425 45.243V41.9998H90.2596V45.2284C90.2596 45.6432 90.1693 45.9946 89.9887 46.2826C89.8082 46.5705 89.5666 46.7853 89.264 46.9268C88.9614 47.0684 88.627 47.1391 88.261 47.1391C87.8949 47.1391 87.5606 47.0684 87.258 46.9268C86.9603 46.7853 86.7236 46.5705 86.5479 46.2826C86.3722 45.9946 86.2843 45.6432 86.2843 45.2284V41.9998H87.1189ZM94.6334 41.9998V42.6807H93.279V47.0879H92.4444V42.6807H91.0827V41.9998H94.6334Z" fill="white"/>
<rect x="1.46387" y="51.2461" width="19.7667" height="19.7667" rx="2.1963" fill="#FC2D5F"/>
<rect x="25.623" y="51.2461" width="19.7667" height="19.7667" rx="2.1963" fill="#26A5C6"/>
<rect x="49.7822" y="51.2461" width="19.7667" height="19.7667" rx="2.1963" fill="#0CA784"/>
<rect x="73.9414" y="51.2461" width="19.7667" height="19.7667" rx="2.1963" fill="#FF4239"/>
</svg>
