<svg width="75" height="24" viewBox="0 0 75 24" fill="none" xmlns="http://www.w3.org/2000/svg">
<path d="M12.5 19H10.68L3.36 7.9V19H1.54V5.04H3.36L10.68 16.12V5.04H12.5V19ZM25.6025 13.1C25.6025 13.4467 25.5825 13.8133 25.5425 14.2H16.7825C16.8492 15.28 17.2158 16.1267 17.8825 16.74C18.5625 17.34 19.3825 17.64 20.3425 17.64C21.1292 17.64 21.7825 17.46 22.3025 17.1C22.8358 16.7267 23.2092 16.2333 23.4225 15.62H25.3825C25.0892 16.6733 24.5025 17.5333 23.6225 18.2C22.7425 18.8533 21.6492 19.18 20.3425 19.18C19.3025 19.18 18.3692 18.9467 17.5425 18.48C16.7292 18.0133 16.0892 17.3533 15.6225 16.5C15.1558 15.6333 14.9225 14.6333 14.9225 13.5C14.9225 12.3667 15.1492 11.3733 15.6025 10.52C16.0558 9.66667 16.6892 9.01333 17.5025 8.56C18.3292 8.09333 19.2758 7.86 20.3425 7.86C21.3825 7.86 22.3025 8.08667 23.1025 8.54C23.9025 8.99333 24.5158 9.62 24.9425 10.42C25.3825 11.2067 25.6025 12.1 25.6025 13.1ZM23.7225 12.72C23.7225 12.0267 23.5692 11.4333 23.2625 10.94C22.9558 10.4333 22.5358 10.0533 22.0025 9.8C21.4825 9.53333 20.9025 9.4 20.2625 9.4C19.3425 9.4 18.5558 9.69333 17.9025 10.28C17.2625 10.8667 16.8958 11.68 16.8025 12.72H23.7225ZM33.7248 19L31.1248 14.92L28.6248 19H26.7248L30.2648 13.56L26.7248 8.04H28.7848L31.3848 12.1L33.8648 8.04H35.7648L32.2448 13.46L35.7848 19H33.7248ZM39.7952 9.54V16C39.7952 16.5333 39.9085 16.9133 40.1352 17.14C40.3618 17.3533 40.7552 17.46 41.3152 17.46H42.6552V19H41.0152C40.0018 19 39.2418 18.7667 38.7352 18.3C38.2285 17.8333 37.9752 17.0667 37.9752 16V9.54H36.5552V8.04H37.9752V5.28H39.7952V8.04H42.6552V9.54H39.7952Z" fill="white"/>
<path d="M73.2768 12.4646L69.3393 16.4021C69.216 16.5254 69.0488 16.5946 68.8745 16.5946C68.7001 16.5946 68.5329 16.5254 68.4096 16.4021C68.2863 16.2788 68.2171 16.1116 68.2171 15.9372C68.2171 15.7629 68.2863 15.5957 68.4096 15.4724L71.2266 12.6565H58.1875C58.0135 12.6565 57.8465 12.5874 57.7235 12.4643C57.6004 12.3412 57.5312 12.1743 57.5312 12.0003C57.5312 11.8262 57.6004 11.6593 57.7235 11.5362C57.8465 11.4132 58.0135 11.344 58.1875 11.344H71.2266L68.4107 8.52653C68.2874 8.40324 68.2182 8.23604 68.2182 8.06169C68.2182 7.88733 68.2874 7.72013 68.4107 7.59684C68.534 7.47356 68.7012 7.4043 68.8755 7.4043C69.0499 7.4043 69.2171 7.47356 69.3404 7.59684L73.2779 11.5343C73.3391 11.5954 73.3876 11.6679 73.4207 11.7478C73.4538 11.8276 73.4707 11.9132 73.4706 11.9997C73.4705 12.0861 73.4534 12.1717 73.4201 12.2515C73.3868 12.3312 73.3381 12.4037 73.2768 12.4646Z" fill="white"/>
</svg>
