<svg width="822" height="626" viewBox="0 0 822 626" fill="none" xmlns="http://www.w3.org/2000/svg">
<path d="M793.751 0H28.2482C12.6479 0 0 12.6494 0 28.2551V597.571C0 613.177 12.6479 625.826 28.2482 625.826H793.75C809.352 625.826 821.998 613.175 821.998 597.571V28.2551C821.999 12.6494 809.352 0 793.751 0Z" fill="#0A0A0A"/>
<path d="M821.998 597.565V28.2606C821.998 12.6436 809.346 0.00390625 793.749 0.00390625H748.266C763.863 0.00390625 776.515 12.6436 776.515 28.2606V597.564C776.515 613.18 763.863 625.82 748.266 625.82H793.749C809.346 625.82 821.998 613.182 821.998 597.565Z" fill="#0F0F0F"/>
<path d="M821.999 122.359V28.2606C821.999 12.6436 809.347 0.00390625 793.75 0.00390625H28.2498C12.6527 0.00551211 0 12.6452 0 28.2606V122.359H821.999Z" fill="#141414"/>
<path d="M821.998 122.359V28.2606C821.998 12.6436 809.346 0.00390625 793.749 0.00390625H748.266C763.863 0.00390625 776.515 12.6436 776.515 28.2606V122.359H821.998Z" fill="#0F0F0F"/>
<path d="M158.954 73.4719H158.798C151.948 73.4719 146.395 67.9173 146.395 61.0651C146.395 54.2129 151.948 48.6582 158.798 48.6582C165.649 48.6582 171.281 54.2129 171.281 61.0651C171.281 67.9173 165.805 73.4719 158.954 73.4719Z" fill="#0CA784"/>
<path d="M118.311 73.5899C111.52 73.5899 105.982 68.1203 105.911 61.3115C105.839 54.4593 111.334 48.8468 118.185 48.7746C124.961 48.683 130.723 54.1992 130.796 61.0514C130.868 67.9052 125.449 73.516 118.599 73.5883L118.443 73.5899C118.4 73.5899 118.355 73.5899 118.311 73.5899Z" fill="#26A5C6"/>
<path d="M77.8251 73.7079C71.034 73.7079 65.4935 68.2384 65.4245 61.4295C65.3539 54.5757 70.8494 48.9632 77.6999 48.8926C77.7433 48.8926 77.7882 48.8926 77.8299 48.8926C84.6227 48.8926 90.2386 54.3621 90.3092 61.171C90.3799 68.0232 84.963 73.6357 78.1109 73.7063L77.9552 73.7079C77.9134 73.7079 77.8685 73.7079 77.8251 73.7079Z" fill="#FC2D5F"/>
<path d="M277.496 73.7083H234.449C227.598 73.7083 222.045 68.1536 222.045 61.3014C222.045 54.4492 227.598 48.8945 234.449 48.8945H277.496C284.347 48.8945 289.9 54.4492 289.9 61.3014C289.9 68.1536 284.347 73.7083 277.496 73.7083Z" fill="#4A4A4A"/>
<path d="M266.957 298.205H256.196V283.547C256.196 271.326 246.277 261.419 234.04 261.419C221.803 261.419 211.884 271.326 211.884 283.547V298.205H160.182L197.412 235.257C203.635 224.735 200.139 211.167 189.603 204.952C179.067 198.736 165.481 202.229 159.258 212.75L102.286 309.079C98.2405 315.919 98.1779 324.401 102.12 331.3C106.064 338.2 113.408 342.459 121.363 342.459H211.886V409.144C211.886 421.365 221.805 431.271 234.042 431.271C246.278 431.271 256.198 421.365 256.198 409.144V342.459H266.959C279.195 342.459 289.115 332.553 289.115 320.332C289.113 308.112 279.194 298.205 266.957 298.205Z" fill="#26A5C6"/>
<path d="M700.636 298.205H689.875V283.547C689.875 271.326 679.956 261.419 667.719 261.419C655.483 261.419 645.563 271.326 645.563 283.547V298.205H593.859L631.09 235.257C637.312 224.735 633.816 211.167 623.28 204.952C612.744 198.736 599.159 202.229 592.936 212.75L535.963 309.079C531.918 315.919 531.856 324.401 535.798 331.3C539.742 338.2 547.086 342.459 555.041 342.459H645.563V409.144C645.563 421.365 655.483 431.271 667.719 431.271C679.956 431.271 689.875 421.365 689.875 409.144V342.459H700.636C712.873 342.459 722.792 332.553 722.792 320.332C722.792 308.112 712.873 298.205 700.636 298.205Z" fill="#26A5C6"/>
<path fill-rule="evenodd" clip-rule="evenodd" d="M382.651 431.268H439.352C467.403 431.268 490.226 408.477 490.226 380.46V252.678C490.226 224.664 467.403 201.871 439.352 201.871H382.651C354.6 201.871 331.777 224.662 331.777 252.678V380.46C331.777 408.475 354.6 431.268 382.651 431.268ZM380.164 261.429C380.164 255.235 385.211 250.194 391.413 250.194H430.593C436.795 250.194 441.842 255.235 441.842 261.429V371.71C441.842 377.906 436.795 382.945 430.593 382.945H391.413C385.211 382.945 380.164 377.904 380.164 371.71V261.429Z" fill="#26A5C6"/>
<path d="M597.053 574.284C590.176 574.284 584.521 568.709 584.521 561.831C584.521 554.952 590.018 549.379 596.895 549.379H597.053C603.93 549.379 609.505 554.954 609.505 561.831C609.505 568.709 603.93 574.284 597.053 574.284Z" fill="#4A4A4A"/>
<path d="M638.295 574.403C631.417 574.403 625.762 568.828 625.762 561.951C625.762 555.073 631.258 549.498 638.137 549.498H638.295C645.172 549.498 650.747 555.073 650.747 561.951C650.747 568.828 645.172 574.403 638.295 574.403Z" fill="#4A4A4A"/>
<path d="M679.539 574.523C679.496 574.523 679.452 574.523 679.409 574.523C672.531 574.453 666.935 568.819 667.005 561.942C667.075 555.108 672.559 549.615 679.376 549.615C679.42 549.615 679.463 549.615 679.507 549.615L679.665 549.617C686.542 549.688 692.059 555.319 691.988 562.198C691.919 569.031 686.355 574.523 679.539 574.523Z" fill="#4A4A4A"/>
<path d="M147.196 523.14H105.954C99.077 523.14 93.502 517.614 93.502 510.797C93.502 503.979 99.077 498.453 105.954 498.453H147.196C154.074 498.453 159.649 503.979 159.649 510.797C159.649 517.614 154.074 523.14 147.196 523.14Z" fill="#4A4A4A"/>
<path d="M188.438 574.41H105.954C99.077 574.41 93.502 568.883 93.502 562.066C93.502 555.249 99.077 549.723 105.954 549.723H188.438C195.315 549.723 200.891 555.249 200.891 562.066C200.891 568.883 195.315 574.41 188.438 574.41Z" fill="#4A4A4A"/>
</svg>
