<svg width="42" height="42" viewBox="0 0 42 42" fill="none" xmlns="http://www.w3.org/2000/svg">
<g clip-path="url(#clip0_2_33573)">
<path d="M20.9996 42.0002C32.5974 42.0002 41.9993 32.5984 41.9993 21.0006C41.9993 9.40283 32.5974 0.000976562 20.9996 0.000976562C9.40185 0.000976562 0 9.40283 0 21.0006C0 32.5984 9.40185 42.0002 20.9996 42.0002Z" fill="#CB2027"/>
<path d="M22.6946 28.1211C21.1071 27.9983 20.44 27.2111 19.195 26.4553C18.5107 30.0456 17.6744 33.4872 15.1974 35.2852C14.4319 29.8588 16.3197 25.783 17.1964 21.4567C15.702 18.9412 17.3761 13.8779 20.528 15.1256C24.4072 16.6596 17.1694 24.4792 22.0283 25.4558C27.101 26.4755 29.1718 16.654 26.0259 13.4594C21.4807 8.84717 12.7956 13.3546 13.8636 19.9571C14.1238 21.5713 15.7919 22.0613 14.53 24.2886C11.621 23.6444 10.7533 21.3501 10.8648 18.2913C11.0449 13.2846 15.3636 9.77889 19.6955 9.29375C25.1739 8.68058 30.3158 11.3054 31.0255 16.4586C31.824 22.2747 28.5523 28.5733 22.6946 28.1211Z" fill="#F1F2F2"/>
</g>
<defs>
<clipPath id="clip0_2_33573">
<rect width="42" height="42" fill="white"/>
</clipPath>
</defs>
</svg>
