<svg width="26" height="16" viewBox="0 0 26 16" fill="none" xmlns="http://www.w3.org/2000/svg">
<path fill-rule="evenodd" clip-rule="evenodd" d="M9.14229 15.531C8.84187 15.8313 8.43447 16 8.00967 16C7.58488 16 7.17748 15.8313 6.87706 15.531L0.469045 9.12294C0.168715 8.82252 0 8.41512 0 7.99033C0 7.56553 0.168715 7.15813 0.469045 6.85771L6.87706 0.449702C7.1792 0.157884 7.58387 -0.00358947 8.00391 6.05597e-05C8.42395 0.00371059 8.82575 0.172192 9.12277 0.469216C9.4198 0.766241 9.58828 1.16804 9.59193 1.58808C9.59558 2.00812 9.4341 2.41279 9.14229 2.71493L5.46889 6.38833H24.0297C24.4546 6.38833 24.8621 6.55711 25.1625 6.85754C25.4629 7.15798 25.6317 7.56545 25.6317 7.99033C25.6317 8.41521 25.4629 8.82268 25.1625 9.12311C24.8621 9.42355 24.4546 9.59233 24.0297 9.59233H5.46889L9.14229 13.2657C9.44262 13.5661 9.61133 13.9735 9.61133 14.3983C9.61133 14.8231 9.44262 15.2305 9.14229 15.531Z" fill="#FF4239"/>
</svg>
