<svg width="56" height="56" viewBox="0 0 56 56" fill="none" xmlns="http://www.w3.org/2000/svg">
<path d="M6.99997 0H36.7376L52.4999 15.701V52.5C52.4999 54.4337 50.932 56 48.9999 56H6.99997C5.06791 56 3.5 54.4337 3.5 52.5V3.49997C3.5 1.56628 5.0681 0 6.99997 0Z" fill="#E2574C"/>
<path d="M52.4492 15.7501H40.25C38.3179 15.7501 36.75 14.1822 36.75 12.2502V0.0351562L52.4492 15.7501Z" fill="#B53629"/>
<path d="M39.3716 26.5357C39.9579 26.5357 40.2449 26.0248 40.2449 25.5295C40.2449 25.0167 39.9456 24.5215 39.3716 24.5215H36.0326C35.3798 24.5215 35.0159 25.0622 35.0159 25.659V33.8647C35.0159 34.5962 35.4323 35.0022 35.9958 35.0022C36.5559 35.0022 36.9742 34.5962 36.9742 33.8647V31.6125H38.9937C39.6202 31.6125 39.9334 31.0997 39.9334 30.5905C39.9334 30.0918 39.6202 29.5964 38.9937 29.5964H36.9742V26.5357H39.3716ZM28.0858 24.5215H25.6428C24.9795 24.5215 24.5087 24.9765 24.5087 25.6519V33.8717C24.5087 34.7099 25.1859 34.9725 25.6707 34.9725H28.2345C31.2689 34.9725 33.2727 32.9758 33.2727 29.8939C33.271 26.6355 31.3846 24.5215 28.0858 24.5215ZM28.2032 32.9461H26.7138V26.5481H28.0561C30.0879 26.5481 30.9716 27.9114 30.9716 29.7925C30.9716 31.5531 30.1035 32.9461 28.2032 32.9461ZM19.2536 24.5215H16.8334C16.1491 24.5215 15.7676 24.9729 15.7676 25.659V33.8647C15.7676 34.5962 16.2051 35.0022 16.793 35.0022C17.3809 35.0022 17.8184 34.5962 17.8184 33.8647V31.4689H19.3356C21.2081 31.4689 22.7534 30.1424 22.7534 28.0091C22.7536 25.9215 21.2626 24.5215 19.2536 24.5215ZM19.2134 29.5441H17.8186V26.4483H19.2134C20.0744 26.4483 20.6222 27.1202 20.6222 27.997C20.6203 28.8721 20.0744 29.5441 19.2134 29.5441Z" fill="white"/>
</svg>
