<svg width="115" height="24" viewBox="0 0 115 24" fill="none" xmlns="http://www.w3.org/2000/svg">
<path d="M1.72509 12.4646L5.66259 16.4021C5.78587 16.5254 5.95308 16.5946 6.12743 16.5946C6.30178 16.5946 6.46899 16.5254 6.59228 16.4021C6.71556 16.2788 6.78482 16.1116 6.78482 15.9372C6.78482 15.7629 6.71556 15.5957 6.59228 15.4724L3.77532 12.6565H16.8144C16.9884 12.6565 17.1554 12.5874 17.2784 12.4643C17.4015 12.3412 17.4706 12.1743 17.4706 12.0003C17.4706 11.8262 17.4015 11.6593 17.2784 11.5362C17.1554 11.4132 16.9884 11.344 16.8144 11.344H3.77532L6.59118 8.52653C6.71447 8.40324 6.78373 8.23604 6.78373 8.06169C6.78373 7.88733 6.71447 7.72013 6.59118 7.59684C6.4679 7.47356 6.30069 7.4043 6.12634 7.4043C5.95199 7.4043 5.78478 7.47356 5.6615 7.59684L1.724 11.5343C1.66281 11.5954 1.61428 11.6679 1.5812 11.7478C1.54812 11.8276 1.53115 11.9132 1.53125 11.9997C1.53135 12.0861 1.54853 12.1717 1.58179 12.2515C1.61506 12.3312 1.66375 12.4037 1.72509 12.4646Z" fill="white"/>
<path d="M41.86 9.14C41.86 10.3 41.46 11.2667 40.66 12.04C39.8733 12.8 38.6667 13.18 37.04 13.18H34.36V19H32.54V5.06H37.04C38.6133 5.06 39.8067 5.44 40.62 6.2C41.4467 6.96 41.86 7.94 41.86 9.14ZM37.04 11.68C38.0533 11.68 38.8 11.46 39.28 11.02C39.76 10.58 40 9.95333 40 9.14C40 7.42 39.0133 6.56 37.04 6.56H34.36V11.68H37.04ZM45.942 9.82C46.262 9.19333 46.7154 8.70667 47.302 8.36C47.902 8.01333 48.6287 7.84 49.482 7.84V9.72H49.002C46.962 9.72 45.942 10.8267 45.942 13.04V19H44.122V8.04H45.942V9.82ZM61.583 13.1C61.583 13.4467 61.563 13.8133 61.523 14.2H52.763C52.8296 15.28 53.1963 16.1267 53.863 16.74C54.543 17.34 55.363 17.64 56.323 17.64C57.1096 17.64 57.763 17.46 58.283 17.1C58.8163 16.7267 59.1896 16.2333 59.403 15.62H61.363C61.0696 16.6733 60.483 17.5333 59.603 18.2C58.723 18.8533 57.6296 19.18 56.323 19.18C55.283 19.18 54.3496 18.9467 53.523 18.48C52.7096 18.0133 52.0696 17.3533 51.603 16.5C51.1363 15.6333 50.903 14.6333 50.903 13.5C50.903 12.3667 51.1296 11.3733 51.583 10.52C52.0363 9.66667 52.6696 9.01333 53.483 8.56C54.3096 8.09333 55.2563 7.86 56.323 7.86C57.363 7.86 58.283 8.08667 59.083 8.54C59.883 8.99333 60.4963 9.62 60.923 10.42C61.363 11.2067 61.583 12.1 61.583 13.1ZM59.703 12.72C59.703 12.0267 59.5496 11.4333 59.243 10.94C58.9363 10.4333 58.5163 10.0533 57.983 9.8C57.463 9.53333 56.883 9.4 56.243 9.4C55.323 9.4 54.5363 9.69333 53.883 10.28C53.243 10.8667 52.8763 11.68 52.783 12.72H59.703ZM68.0653 17.32L71.4653 8.04H73.4053L69.1053 19H66.9853L62.6853 8.04H64.6453L68.0653 17.32ZM76.1363 6.26C75.7896 6.26 75.4963 6.14 75.2563 5.9C75.0163 5.66 74.8963 5.36667 74.8963 5.02C74.8963 4.67333 75.0163 4.38 75.2563 4.14C75.4963 3.9 75.7896 3.78 76.1363 3.78C76.4696 3.78 76.7496 3.9 76.9763 4.14C77.2163 4.38 77.3363 4.67333 77.3363 5.02C77.3363 5.36667 77.2163 5.66 76.9763 5.9C76.7496 6.14 76.4696 6.26 76.1363 6.26ZM77.0163 8.04V19H75.1963V8.04H77.0163ZM84.8981 19.18C83.8715 19.18 82.9381 18.9467 82.0981 18.48C81.2715 18.0133 80.6181 17.3533 80.1381 16.5C79.6715 15.6333 79.4381 14.6333 79.4381 13.5C79.4381 12.38 79.6781 11.3933 80.1581 10.54C80.6515 9.67333 81.3181 9.01333 82.1581 8.56C82.9981 8.09333 83.9381 7.86 84.9781 7.86C86.0181 7.86 86.9581 8.09333 87.7981 8.56C88.6381 9.01333 89.2981 9.66667 89.7781 10.52C90.2715 11.3733 90.5181 12.3667 90.5181 13.5C90.5181 14.6333 90.2648 15.6333 89.7581 16.5C89.2648 17.3533 88.5915 18.0133 87.7381 18.48C86.8848 18.9467 85.9381 19.18 84.8981 19.18ZM84.8981 17.58C85.5515 17.58 86.1648 17.4267 86.7381 17.12C87.3115 16.8133 87.7715 16.3533 88.1181 15.74C88.4781 15.1267 88.6581 14.38 88.6581 13.5C88.6581 12.62 88.4848 11.8733 88.1381 11.26C87.7915 10.6467 87.3381 10.1933 86.7781 9.9C86.2181 9.59333 85.6115 9.44 84.9581 9.44C84.2915 9.44 83.6781 9.59333 83.1181 9.9C82.5715 10.1933 82.1315 10.6467 81.7981 11.26C81.4648 11.8733 81.2981 12.62 81.2981 13.5C81.2981 14.3933 81.4581 15.1467 81.7781 15.76C82.1115 16.3733 82.5515 16.8333 83.0981 17.14C83.6448 17.4333 84.2448 17.58 84.8981 17.58ZM102.631 8.04V19H100.811V17.38C100.464 17.94 99.9778 18.38 99.3511 18.7C98.7378 19.0067 98.0578 19.16 97.3111 19.16C96.4578 19.16 95.6911 18.9867 95.0111 18.64C94.3311 18.28 93.7911 17.7467 93.3911 17.04C93.0044 16.3333 92.8111 15.4733 92.8111 14.46V8.04H94.6111V14.22C94.6111 15.3 94.8844 16.1333 95.4311 16.72C95.9778 17.2933 96.7244 17.58 97.6711 17.58C98.6444 17.58 99.4111 17.28 99.9711 16.68C100.531 16.08 100.811 15.2067 100.811 14.06V8.04H102.631ZM109.584 19.18C108.744 19.18 107.991 19.04 107.324 18.76C106.657 18.4667 106.131 18.0667 105.744 17.56C105.357 17.04 105.144 16.4467 105.104 15.78H106.984C107.037 16.3267 107.291 16.7733 107.744 17.12C108.211 17.4667 108.817 17.64 109.564 17.64C110.257 17.64 110.804 17.4867 111.204 17.18C111.604 16.8733 111.804 16.4867 111.804 16.02C111.804 15.54 111.591 15.1867 111.164 14.96C110.737 14.72 110.077 14.4867 109.184 14.26C108.371 14.0467 107.704 13.8333 107.184 13.62C106.677 13.3933 106.237 13.0667 105.864 12.64C105.504 12.2 105.324 11.6267 105.324 10.92C105.324 10.36 105.491 9.84667 105.824 9.38C106.157 8.91333 106.631 8.54667 107.244 8.28C107.857 8 108.557 7.86 109.344 7.86C110.557 7.86 111.537 8.16667 112.284 8.78C113.031 9.39333 113.431 10.2333 113.484 11.3H111.664C111.624 10.7267 111.391 10.2667 110.964 9.92C110.551 9.57333 109.991 9.4 109.284 9.4C108.631 9.4 108.111 9.54 107.724 9.82C107.337 10.1 107.144 10.4667 107.144 10.92C107.144 11.28 107.257 11.58 107.484 11.82C107.724 12.0467 108.017 12.2333 108.364 12.38C108.724 12.5133 109.217 12.6667 109.844 12.84C110.631 13.0533 111.271 13.2667 111.764 13.48C112.257 13.68 112.677 13.9867 113.024 14.4C113.384 14.8133 113.571 15.3533 113.584 16.02C113.584 16.62 113.417 17.16 113.084 17.64C112.751 18.12 112.277 18.5 111.664 18.78C111.064 19.0467 110.371 19.18 109.584 19.18Z" fill="white"/>
</svg>
