<svg width="456" height="284" viewBox="0 0 456 284" fill="none" xmlns="http://www.w3.org/2000/svg">
<mask id="mask0_2_33912" style="mask-type:alpha" maskUnits="userSpaceOnUse" x="0" y="-172" width="457" height="456">
<rect x="0.875977" y="-171.189" width="455.125" height="455.125" fill="#21151D"/>
</mask>
<g mask="url(#mask0_2_33912)">
<path d="M330.378 138.85C327.85 138.85 325.953 137.826 324.689 135.777C323.425 133.717 323.267 131.58 324.215 129.368L353.609 62.9954H273.014C269.537 62.9954 266.459 61.649 263.778 58.9562C261.086 56.276 259.739 53.1976 259.739 49.7209V-31.8222C259.739 -35.2989 261.086 -38.3836 263.778 -41.0764C266.459 -43.7566 269.537 -45.0967 273.014 -45.0967H354.557C358.033 -45.0967 361.118 -43.7566 363.811 -41.0764C366.491 -38.3836 367.831 -35.2989 367.831 -31.8222V56.8323C367.831 58.7286 367.591 60.625 367.111 62.5213C366.643 64.4177 366.093 66.314 365.461 68.2104L336.541 135.057C335.909 136.321 335.119 137.269 334.171 137.901C333.223 138.533 331.959 138.85 330.378 138.85ZM159.707 138.85C157.178 138.85 155.282 137.826 154.017 135.777C152.753 133.717 152.595 131.58 153.543 129.368L182.937 62.9954H102.342C98.8652 62.9954 95.7868 61.649 93.1066 58.9562C90.4138 56.276 89.0674 53.1976 89.0674 49.7209V-31.8222C89.0674 -35.2989 90.4138 -38.3836 93.1066 -41.0764C95.7868 -43.7566 98.8652 -45.0967 102.342 -45.0967H183.885C187.362 -45.0967 190.446 -43.7566 193.139 -41.0764C195.819 -38.3836 197.159 -35.2989 197.159 -31.8222V56.8323C197.159 58.7286 196.919 60.625 196.439 62.5213C195.971 64.4177 195.421 66.314 194.789 68.2104L165.87 135.057C165.238 136.321 164.447 137.269 163.499 137.901C162.551 138.533 161.287 138.85 159.707 138.85Z" fill="#0E0E0E"/>
</g>
</svg>
