<svg width="37" height="37" viewBox="0 0 37 37" fill="none" xmlns="http://www.w3.org/2000/svg">
<path d="M5.00098 7.81739V31.9034H14.0332V29.6453H11.0225V27.3873H14.0332V25.1292H8.01173V22.8712H14.0332V20.6131H11.0225V18.355H14.0332V16.097H8.01173V13.8389H14.0332V7.81739H16.2913V13.8389H18.5494V10.8281H20.8074V13.8389H23.0655V7.81739H25.3236V13.8389H27.5816V10.8281H29.8397V13.8389H32.0978V4.80664H8.01173C7.21323 4.80664 6.44743 5.12384 5.88281 5.68847C5.31818 6.2531 5.00098 7.01889 5.00098 7.81739ZM9.51711 10.8281C9.11786 10.8281 8.73496 10.6695 8.45264 10.3872C8.17033 10.1049 8.01173 9.72202 8.01173 9.32277C8.01173 8.92352 8.17033 8.54062 8.45264 8.25831C8.73496 7.976 9.11786 7.81739 9.51711 7.81739C9.91636 7.81739 10.2993 7.976 10.5816 8.25831C10.8639 8.54062 11.0225 8.92352 11.0225 9.32277C11.0225 9.72202 10.8639 10.1049 10.5816 10.3872C10.2993 10.6695 9.91636 10.8281 9.51711 10.8281Z" fill="white"/>
</svg>
