<svg width="74" height="74" viewBox="0 0 74 74" fill="none" xmlns="http://www.w3.org/2000/svg">
<rect width="74" height="74" rx="4" fill="#26A5C6"/>
<path d="M34.2856 30.2148H31.5713V45.1434H34.2856V30.2148Z" fill="white"/>
<path d="M42.4286 30.2148H39.7144V45.1434H42.4286V30.2148Z" fill="white"/>
<path d="M37 18C39.5318 17.9992 42.0379 18.5075 44.3693 19.4946C46.7008 20.4818 48.8099 21.9276 50.5714 23.7461V18H53.2857V28.8571H42.4286V26.1429H49.1084C46.5658 23.3192 43.1147 21.4752 39.3542 20.9308C35.5936 20.3864 31.7612 21.1761 28.5223 23.1628C25.2833 25.1495 22.8423 28.2076 21.6231 31.8064C20.4038 35.4052 20.4833 39.3173 21.8477 42.8636C23.2122 46.4099 25.7754 49.3664 29.0924 51.2198C32.4094 53.0733 36.2707 53.7066 40.006 53.0099C43.7413 52.3133 47.1146 50.3305 49.5405 47.406C51.9663 44.4814 53.2914 40.7997 53.2857 37H56C56 40.7578 54.8857 44.4313 52.7979 47.5558C50.7102 50.6804 47.7428 53.1156 44.271 54.5537C40.7992 55.9918 36.9789 56.368 33.2933 55.6349C29.6076 54.9018 26.2222 53.0922 23.565 50.435C20.9078 47.7778 19.0982 44.3923 18.3651 40.7067C17.632 37.0211 18.0082 33.2008 19.4463 29.729C20.8844 26.2572 23.3196 23.2898 26.4442 21.2021C29.5687 19.1143 33.2422 18 37 18Z" fill="white"/>
</svg>
