<svg width="1918" height="173" viewBox="0 0 1918 173" fill="none" xmlns="http://www.w3.org/2000/svg">
<rect width="1915.83" height="77.5265" transform="translate(0 95.5137) rotate(-2.88352)" fill="#060606"/>
<rect x="1.58789" y="127.021" width="14.8995" height="14.8995" rx="1.6555" transform="rotate(-3.27194 1.58789 127.021)" fill="#FC2D5F"/>
<rect x="19.7686" y="125.982" width="14.8995" height="14.8995" rx="1.6555" transform="rotate(-3.27194 19.7686 125.982)" fill="#26A5C6"/>
<rect x="37.9492" y="124.943" width="14.8995" height="14.8995" rx="1.6555" transform="rotate(-3.27194 37.9492 124.943)" fill="#0CA784"/>
<rect x="56.1309" y="123.904" width="14.8995" height="14.8995" rx="1.6555" transform="rotate(-3.27194 56.1309 123.904)" fill="#FF4239"/>
<path d="M122.834 118.028C125.132 117.912 127.139 118.245 128.856 119.028C130.591 119.789 131.942 120.943 132.909 122.491C133.897 124.037 134.444 125.889 134.553 128.045C134.662 130.202 134.303 132.099 133.476 133.737C132.668 135.354 131.439 136.628 129.789 137.56C128.158 138.47 126.193 138.983 123.896 139.099L117.336 139.429L116.274 118.358L122.834 118.028ZM123.782 136.832C126.502 136.695 128.542 135.875 129.901 134.372C131.259 132.848 131.873 130.787 131.742 128.187C131.61 125.567 130.781 123.558 129.256 122.159C127.751 120.76 125.648 120.129 122.947 120.265L119.138 120.457L119.972 137.023L123.782 136.832ZM153.377 128.673C153.403 129.197 153.401 129.753 153.37 130.34L140.128 131.007C140.311 132.635 140.93 133.887 141.985 134.763C143.058 135.618 144.32 136.009 145.772 135.936C146.961 135.876 147.935 135.554 148.693 134.971C149.471 134.366 149.998 133.592 150.273 132.648L153.236 132.499C152.873 134.114 152.052 135.458 150.772 136.533C149.492 137.587 147.864 138.165 145.889 138.264C144.317 138.343 142.888 138.062 141.603 137.419C140.338 136.776 139.32 135.827 138.55 134.572C137.779 133.298 137.35 131.804 137.264 130.091C137.177 128.378 137.444 126.859 138.065 125.535C138.685 124.21 139.592 123.174 140.787 122.427C142.001 121.659 143.415 121.234 145.027 121.153C146.599 121.074 148.007 121.346 149.251 121.971C150.494 122.595 151.469 123.496 152.175 124.672C152.9 125.828 153.301 127.162 153.377 128.673ZM150.506 128.242C150.453 127.194 150.176 126.309 149.675 125.586C149.173 124.844 148.509 124.301 147.684 123.959C146.878 123.596 145.991 123.438 145.023 123.487C143.633 123.557 142.466 124.06 141.523 124.997C140.6 125.932 140.108 127.19 140.046 128.769L150.506 128.242ZM163.336 137.385C162.066 137.449 160.917 137.295 159.888 136.922C158.858 136.53 158.031 135.965 157.408 135.229C156.784 134.472 156.416 133.592 156.305 132.587L159.147 132.444C159.269 133.266 159.686 133.922 160.398 134.411C161.13 134.9 162.06 135.116 163.188 135.059C164.236 135.006 165.051 134.733 165.632 134.239C166.214 133.745 166.487 133.145 166.451 132.44C166.415 131.714 166.065 131.196 165.403 130.886C164.74 130.556 163.724 130.253 162.357 129.979C161.111 129.718 160.087 129.446 159.285 129.164C158.502 128.86 157.812 128.399 157.215 127.783C156.637 127.145 156.322 126.292 156.268 125.224C156.225 124.377 156.438 123.589 156.906 122.858C157.375 122.127 158.062 121.537 158.969 121.087C159.875 120.617 160.922 120.352 162.111 120.292C163.945 120.2 165.45 120.589 166.625 121.459C167.801 122.329 168.469 123.569 168.631 125.177L165.88 125.316C165.776 124.452 165.388 123.774 164.717 123.283C164.066 122.79 163.206 122.571 162.138 122.625C161.15 122.675 160.375 122.926 159.812 123.378C159.249 123.831 158.984 124.4 159.019 125.085C159.046 125.63 159.24 126.074 159.601 126.42C159.981 126.744 160.439 127.004 160.974 127.199C161.528 127.373 162.286 127.568 163.246 127.782C164.452 128.045 165.435 128.318 166.197 128.603C166.958 128.868 167.616 129.3 168.172 129.898C168.747 130.495 169.071 131.297 169.142 132.304C169.187 133.211 168.977 134.04 168.509 134.791C168.042 135.542 167.355 136.152 166.45 136.622C165.563 137.071 164.525 137.325 163.336 137.385ZM173.703 117.284C173.179 117.31 172.726 117.151 172.345 116.807C171.964 116.462 171.761 116.028 171.734 115.504C171.708 114.98 171.867 114.527 172.211 114.146C172.556 113.765 172.99 113.562 173.514 113.535C174.018 113.51 174.45 113.67 174.811 114.015C175.192 114.36 175.396 114.794 175.422 115.318C175.449 115.842 175.29 116.295 174.945 116.676C174.621 117.056 174.207 117.259 173.703 117.284ZM175.169 119.907L176.003 136.474L173.252 136.613L172.418 120.046L175.169 119.907ZM186.676 119.055C188.107 118.983 189.372 119.232 190.472 119.803C191.592 120.373 192.438 121.119 193.009 122.04L192.857 119.017L195.638 118.876L196.491 135.806C196.567 137.318 196.312 138.674 195.726 139.876C195.141 141.097 194.261 142.071 193.085 142.797C191.929 143.522 190.555 143.925 188.963 144.005C186.787 144.114 184.947 143.692 183.444 142.737C181.941 141.782 181.014 140.425 180.663 138.664L183.383 138.527C183.736 139.52 184.402 140.295 185.38 140.851C186.358 141.428 187.513 141.684 188.843 141.617C190.355 141.54 191.56 141.005 192.46 140.01C193.379 139.014 193.796 137.659 193.71 135.946L193.535 132.47C193.039 133.464 192.274 134.311 191.238 135.01C190.202 135.709 188.969 136.094 187.538 136.166C186.067 136.24 184.708 135.945 183.462 135.28C182.237 134.615 181.248 133.644 180.497 132.369C179.746 131.093 179.328 129.619 179.244 127.946C179.158 126.253 179.427 124.755 180.048 123.45C180.668 122.126 181.555 121.081 182.709 120.316C183.882 119.549 185.205 119.129 186.676 119.055ZM193.273 127.27C193.21 126.02 192.903 124.945 192.352 124.043C191.802 123.141 191.081 122.47 190.19 122.03C189.318 121.569 188.368 121.364 187.341 121.416C186.313 121.468 185.388 121.757 184.566 122.283C183.743 122.809 183.104 123.549 182.647 124.501C182.189 125.454 181.992 126.555 182.055 127.804C182.119 129.074 182.427 130.17 182.979 131.092C183.529 131.994 184.24 132.675 185.112 133.136C185.983 133.577 186.932 133.772 187.96 133.72C188.988 133.668 189.913 133.379 190.735 132.853C191.577 132.306 192.226 131.556 192.683 130.603C193.139 129.63 193.336 128.519 193.273 127.27ZM208.344 117.933C210.359 117.832 212.023 118.364 213.334 119.531C214.645 120.677 215.358 122.399 215.474 124.697L215.966 134.462L213.245 134.599L212.773 125.227C212.689 123.574 212.213 122.335 211.343 121.51C210.472 120.665 209.321 120.279 207.89 120.351C206.439 120.424 205.303 120.936 204.482 121.886C203.681 122.836 203.324 124.177 203.412 125.91L203.873 135.071L201.122 135.209L200.287 118.642L203.038 118.504L203.157 120.862C203.659 119.988 204.361 119.296 205.265 118.786C206.189 118.274 207.215 117.99 208.344 117.933ZM226.96 123.33C226.856 121.274 227.227 119.407 228.072 117.728C228.916 116.028 230.11 114.675 231.656 113.668C233.222 112.659 234.982 112.106 236.937 112.008C239.234 111.892 241.268 112.345 243.037 113.367C244.806 114.389 246.134 115.899 247.023 117.895L243.728 118.061C243.079 116.82 242.184 115.885 241.041 115.256C239.918 114.626 238.59 114.349 237.059 114.426C235.587 114.5 234.285 114.909 233.15 115.653C232.016 116.398 231.148 117.421 230.547 118.724C229.945 120.008 229.686 121.496 229.771 123.189C229.856 124.861 230.262 126.316 230.991 127.552C231.719 128.768 232.685 129.689 233.889 130.316C235.092 130.942 236.429 131.218 237.901 131.144C239.432 131.067 240.726 130.668 241.781 129.949C242.855 129.207 243.652 128.187 244.172 126.888L247.468 126.722C246.783 128.777 245.612 130.402 243.955 131.597C242.297 132.772 240.319 133.417 238.021 133.532C236.066 133.631 234.26 133.267 232.602 132.442C230.963 131.595 229.639 130.378 228.629 128.792C227.62 127.207 227.063 125.386 226.96 123.33ZM259.111 132.561C257.559 132.639 256.13 132.358 254.825 131.716C253.54 131.074 252.502 130.126 251.712 128.872C250.94 127.598 250.512 126.104 250.425 124.391C250.34 122.698 250.628 121.188 251.288 119.862C251.968 118.514 252.925 117.466 254.161 116.717C255.395 115.947 256.798 115.523 258.37 115.444C259.942 115.365 261.381 115.646 262.686 116.287C263.99 116.909 265.038 117.846 265.828 119.099C266.639 120.352 267.087 121.834 267.174 123.547C267.26 125.261 266.953 126.791 266.253 128.14C265.572 129.467 264.605 130.516 263.351 131.287C262.096 132.057 260.683 132.482 259.111 132.561ZM258.989 130.143C259.977 130.093 260.892 129.814 261.735 129.307C262.579 128.8 263.239 128.07 263.716 127.116C264.214 126.162 264.429 125.019 264.362 123.689C264.295 122.359 263.976 121.243 263.405 120.343C262.835 119.442 262.115 118.791 261.246 118.39C260.376 117.97 259.448 117.784 258.46 117.834C257.452 117.884 256.537 118.163 255.714 118.669C254.91 119.154 254.279 119.873 253.822 120.825C253.365 121.778 253.17 122.919 253.237 124.249C253.305 125.6 253.604 126.726 254.134 127.629C254.685 128.531 255.385 129.193 256.235 129.615C257.083 130.016 258.002 130.192 258.989 130.143ZM278.432 114.403C280.447 114.302 282.111 114.834 283.422 116.001C284.732 117.147 285.446 118.869 285.561 121.166L286.053 130.931L283.332 131.068L282.86 121.697C282.777 120.044 282.3 118.805 281.43 117.98C280.559 117.135 279.408 116.748 277.977 116.82C276.526 116.893 275.39 117.405 274.569 118.356C273.769 119.305 273.412 120.647 273.499 122.38L273.961 131.54L271.209 131.679L270.375 115.112L273.126 114.973L273.245 117.332C273.746 116.458 274.449 115.766 275.353 115.255C276.277 114.744 277.303 114.46 278.432 114.403ZM296.426 130.682C295.156 130.746 294.007 130.591 292.978 130.219C291.947 129.826 291.121 129.262 290.498 128.525C289.874 127.769 289.506 126.888 289.395 125.883L292.237 125.74C292.359 126.562 292.776 127.218 293.488 127.708C294.219 128.196 295.15 128.412 296.278 128.355C297.326 128.302 298.141 128.029 298.722 127.535C299.303 127.041 299.576 126.441 299.541 125.736C299.504 125.01 299.155 124.493 298.493 124.182C297.829 123.852 296.814 123.55 295.446 123.275C294.201 123.015 293.177 122.743 292.375 122.46C291.591 122.156 290.901 121.696 290.305 121.079C289.727 120.441 289.411 119.588 289.357 118.52C289.315 117.674 289.528 116.885 289.996 116.154C290.464 115.424 291.152 114.833 292.059 114.384C292.964 113.914 294.012 113.649 295.201 113.589C297.035 113.496 298.54 113.885 299.715 114.756C300.89 115.626 301.559 116.865 301.721 118.473L298.97 118.612C298.866 117.748 298.478 117.071 297.807 116.579C297.155 116.087 296.296 115.867 295.228 115.921C294.24 115.971 293.465 116.222 292.901 116.675C292.338 117.127 292.074 117.696 292.109 118.382C292.136 118.926 292.33 119.371 292.691 119.716C293.071 120.041 293.529 120.3 294.064 120.496C294.618 120.67 295.375 120.864 296.336 121.078C297.541 121.341 298.525 121.615 299.287 121.9C300.048 122.164 300.706 122.596 301.262 123.194C301.837 123.792 302.16 124.594 302.231 125.6C302.277 126.507 302.066 127.336 301.599 128.087C301.132 128.838 300.445 129.449 299.539 129.919C298.653 130.367 297.615 130.622 296.426 130.682ZM320.2 112.602L321.034 129.169L318.283 129.308L318.16 126.859C317.679 127.732 316.976 128.434 316.054 128.966C315.15 129.476 314.134 129.759 313.005 129.816C311.715 129.881 310.543 129.677 309.489 129.205C308.433 128.713 307.577 127.948 306.918 126.91C306.28 125.871 305.922 124.586 305.845 123.054L305.356 113.35L308.077 113.213L308.548 122.555C308.63 124.187 309.106 125.426 309.977 126.271C310.847 127.096 311.998 127.473 313.429 127.4C314.9 127.326 316.036 126.815 316.837 125.865C317.638 124.915 317.994 123.574 317.907 121.841L317.449 112.741L320.2 112.602ZM327.304 106.425L328.43 128.797L325.679 128.935L324.553 106.564L327.304 106.425ZM335.755 114.092L336.246 123.857C336.287 124.663 336.487 125.229 336.847 125.554C337.206 125.859 337.809 125.991 338.655 125.948L340.681 125.846L340.798 128.174L338.319 128.299C336.787 128.376 335.621 128.081 334.819 127.414C334.018 126.747 333.577 125.608 333.495 123.995L333.004 114.231L330.857 114.339L330.743 112.071L332.889 111.963L332.679 107.791L335.43 107.653L335.64 111.825L339.964 111.607L340.078 113.874L335.755 114.092ZM342.683 119.714C342.598 118.021 342.866 116.522 343.487 115.218C344.107 113.894 344.994 112.849 346.148 112.083C347.322 111.317 348.644 110.897 350.115 110.823C351.567 110.75 352.842 110.999 353.942 111.57C355.041 112.141 355.877 112.886 356.449 113.807L356.296 110.784L359.078 110.644L359.912 127.211L357.131 127.351L356.976 124.267C356.48 125.262 355.704 126.11 354.649 126.809C353.612 127.488 352.378 127.863 350.947 127.935C349.476 128.009 348.127 127.714 346.902 127.048C345.676 126.382 344.688 125.412 343.936 124.136C343.185 122.861 342.767 121.387 342.683 119.714ZM356.712 119.037C356.649 117.788 356.342 116.712 355.792 115.81C355.241 114.909 354.521 114.238 353.63 113.798C352.758 113.337 351.808 113.132 350.78 113.184C349.752 113.235 348.827 113.524 348.005 114.051C347.183 114.577 346.543 115.317 346.086 116.269C345.629 117.222 345.432 118.323 345.495 119.572C345.559 120.842 345.866 121.938 346.418 122.86C346.969 123.761 347.68 124.443 348.552 124.904C349.422 125.345 350.372 125.54 351.4 125.488C352.428 125.436 353.353 125.147 354.175 124.621C355.016 124.073 355.665 123.323 356.122 122.371C356.578 121.398 356.775 120.287 356.712 119.037ZM367.197 112.508L367.688 122.273C367.729 123.079 367.929 123.645 368.289 123.97C368.648 124.276 369.251 124.407 370.097 124.364L372.123 124.262L372.24 126.59L369.761 126.715C368.229 126.792 367.063 126.497 366.261 125.83C365.46 125.164 365.019 124.024 364.937 122.412L364.446 112.647L362.299 112.755L362.185 110.488L364.331 110.379L364.121 106.208L366.872 106.069L367.082 110.241L371.406 110.023L371.52 112.291L367.197 112.508ZM376.024 107.093C375.5 107.119 375.048 106.96 374.667 106.616C374.286 106.271 374.082 105.837 374.055 105.313C374.029 104.789 374.188 104.337 374.533 103.956C374.877 103.574 375.311 103.371 375.835 103.344C376.339 103.319 376.772 103.479 377.133 103.825C377.514 104.169 377.717 104.603 377.744 105.127C377.77 105.651 377.611 106.104 377.267 106.485C376.942 106.865 376.528 107.068 376.024 107.093ZM377.49 109.717L378.324 126.284L375.573 126.422L374.739 109.855L377.49 109.717ZM390.252 125.956C388.7 126.034 387.272 125.752 385.966 125.111C384.681 124.468 383.643 123.52 382.853 122.267C382.082 120.992 381.653 119.499 381.566 117.786C381.481 116.093 381.769 114.583 382.429 113.256C383.109 111.909 384.067 110.86 385.302 110.111C386.536 109.342 387.939 108.918 389.511 108.838C391.083 108.759 392.522 109.04 393.827 109.682C395.131 110.303 396.179 111.24 396.969 112.494C397.78 113.746 398.228 115.229 398.315 116.942C398.401 118.655 398.094 120.186 397.394 121.535C396.714 122.862 395.746 123.911 394.492 124.681C393.237 125.452 391.824 125.876 390.252 125.956ZM390.13 123.537C391.118 123.487 392.033 123.209 392.877 122.702C393.72 122.194 394.38 121.464 394.857 120.511C395.355 119.556 395.57 118.414 395.503 117.084C395.436 115.753 395.117 114.638 394.547 113.737C393.976 112.836 393.256 112.186 392.387 111.785C391.518 111.364 390.589 111.178 389.601 111.228C388.594 111.279 387.678 111.557 386.855 112.064C386.051 112.549 385.42 113.267 384.963 114.22C384.506 115.172 384.311 116.314 384.378 117.644C384.446 118.994 384.745 120.121 385.276 121.024C385.826 121.925 386.526 122.587 387.376 123.009C388.225 123.411 389.143 123.587 390.13 123.537ZM409.573 107.798C411.588 107.696 413.252 108.229 414.563 109.395C415.874 110.541 416.587 112.263 416.703 114.561L417.194 124.326L414.474 124.463L414.001 115.091C413.918 113.438 413.442 112.2 412.572 111.374C411.701 110.529 410.55 110.143 409.119 110.215C407.668 110.288 406.532 110.8 405.711 111.75C404.91 112.7 404.553 114.041 404.64 115.775L405.102 124.935L402.351 125.073L401.516 108.507L404.267 108.368L404.386 110.726C404.888 109.852 405.59 109.16 406.494 108.65C407.418 108.139 408.444 107.854 409.573 107.798Z" fill="white"/>
<rect x="460.668" y="103.898" width="14.8995" height="14.8995" rx="1.6555" transform="rotate(-3.27194 460.668 103.898)" fill="#FC2D5F"/>
<rect x="478.849" y="102.859" width="14.8995" height="14.8995" rx="1.6555" transform="rotate(-3.27194 478.849 102.859)" fill="#26A5C6"/>
<rect x="497.029" y="101.82" width="14.8995" height="14.8995" rx="1.6555" transform="rotate(-3.27194 497.029 101.82)" fill="#0CA784"/>
<rect x="515.211" y="100.779" width="14.8995" height="14.8995" rx="1.6555" transform="rotate(-3.27194 515.211 100.779)" fill="#FF4239"/>
<path d="M578.105 95.0945L579.167 116.166L576.416 116.304L575.354 95.233L578.105 95.0945ZM591.078 98.6539C593.093 98.5524 594.756 99.0849 596.068 100.251C597.378 101.398 598.092 103.12 598.207 105.417L598.699 115.182L595.978 115.319L595.506 105.947C595.423 104.295 594.946 103.056 594.076 102.231C593.205 101.386 592.054 100.999 590.623 101.071C589.172 101.144 588.036 101.656 587.215 102.607C586.415 103.556 586.058 104.898 586.145 106.631L586.606 115.791L583.855 115.93L583.021 99.3628L585.772 99.2242L585.891 101.582C586.392 100.708 587.095 100.016 587.999 99.5061C588.923 98.9948 589.949 98.7108 591.078 98.6539ZM605.828 100.487L606.32 110.252C606.361 111.058 606.561 111.624 606.921 111.949C607.28 112.254 607.883 112.386 608.729 112.343L610.755 112.241L610.872 114.569L608.393 114.694C606.861 114.771 605.695 114.476 604.893 113.809C604.092 113.142 603.65 112.003 603.569 110.39L603.077 100.626L600.931 100.734L600.817 98.4664L602.963 98.3583L602.753 94.1864L605.504 94.0478L605.714 98.2198L610.037 98.002L610.152 100.269L605.828 100.487ZM628.872 104.721C628.898 105.245 628.896 105.801 628.865 106.389L615.623 107.056C615.806 108.683 616.425 109.935 617.479 110.811C618.553 111.666 619.815 112.057 621.266 111.984C622.456 111.924 623.429 111.603 624.188 111.019C624.966 110.414 625.492 109.64 625.768 108.696L628.731 108.547C628.368 110.162 627.546 111.506 626.267 112.581C624.987 113.636 623.359 114.213 621.384 114.312C619.812 114.391 618.383 114.11 617.098 113.467C615.833 112.824 614.815 111.875 614.045 110.621C613.274 109.346 612.845 107.852 612.758 106.139C612.672 104.426 612.939 102.907 613.559 101.583C614.18 100.258 615.087 99.2226 616.282 98.4755C617.496 97.7071 618.909 97.2823 620.522 97.2011C622.094 97.122 623.502 97.3945 624.746 98.0189C625.989 98.6432 626.964 99.5438 627.67 100.721C628.395 101.876 628.796 103.21 628.872 104.721ZM626.001 104.29C625.948 103.242 625.671 102.357 625.17 101.634C624.668 100.892 624.004 100.35 623.179 100.007C622.372 99.6437 621.486 99.4863 620.518 99.5351C619.127 99.6051 617.961 100.108 617.018 101.045C616.095 101.98 615.603 103.238 615.541 104.817L626.001 104.29ZM635.004 99.4419C635.44 98.4703 636.089 97.7001 636.949 97.1314C637.829 96.5617 638.915 96.2444 640.205 96.1794L640.348 99.0212L639.622 99.0577C636.539 99.2131 635.081 100.964 635.249 104.309L635.703 113.318L632.952 113.457L632.118 96.8898L634.869 96.7513L635.004 99.4419ZM644.681 93.5596C644.157 93.586 643.704 93.4269 643.323 93.0824C642.942 92.7379 642.738 92.3037 642.712 91.7797C642.686 91.2556 642.845 90.8031 643.189 90.4221C643.534 90.041 643.968 89.8373 644.492 89.8109C644.996 89.7855 645.428 89.9456 645.789 90.2911C646.17 90.6356 646.374 91.0699 646.4 91.5939C646.427 92.1179 646.268 92.5704 645.923 92.9515C645.599 93.3315 645.185 93.5342 644.681 93.5596ZM646.147 96.1832L646.981 112.75L644.23 112.889L643.396 96.3218L646.147 96.1832ZM658.909 112.422C657.357 112.5 655.928 112.219 654.623 111.577C653.338 110.935 652.3 109.987 651.51 108.733C650.738 107.459 650.309 105.965 650.223 104.252C650.138 102.559 650.426 101.049 651.086 99.7229C651.766 98.3753 652.723 97.3269 653.959 96.5777C655.193 95.8084 656.596 95.3841 658.168 95.3049C659.74 95.2257 661.179 95.5069 662.484 96.1483C663.788 96.7696 664.835 97.7069 665.626 98.9603C666.437 100.213 666.885 101.695 666.971 103.408C667.058 105.122 666.751 106.652 666.051 108.001C665.37 109.328 664.403 110.377 663.148 111.148C661.894 111.918 660.481 112.343 658.909 112.422ZM658.787 110.004C659.775 109.954 660.69 109.675 661.533 109.168C662.377 108.661 663.037 107.931 663.514 106.977C664.012 106.023 664.227 104.88 664.16 103.55C664.093 102.22 663.774 101.104 663.203 100.204C662.633 99.303 661.913 98.6523 661.044 98.2515C660.174 97.8306 659.246 97.645 658.258 97.6947C657.25 97.7455 656.335 98.024 655.512 98.5302C654.708 99.0152 654.077 99.7339 653.62 100.686C653.163 101.639 652.968 102.78 653.035 104.11C653.103 105.461 653.402 106.587 653.932 107.49C654.483 108.392 655.183 109.054 656.033 109.476C656.881 109.877 657.799 110.053 658.787 110.004ZM673.059 97.5251C673.495 96.5534 674.144 95.7833 675.004 95.2146C675.885 94.6449 676.97 94.3276 678.26 94.2626L678.403 97.1044L677.677 97.1409C674.594 97.2962 673.136 99.0467 673.305 102.392L673.758 111.401L671.007 111.54L670.173 94.973L672.924 94.8344L673.059 97.5251ZM695.844 89.1641C698.141 89.0483 700.148 89.3817 701.865 90.164C703.601 90.9252 704.952 92.0796 705.919 93.6271C706.906 95.1737 707.454 97.0252 707.562 99.1817C707.671 101.338 707.312 103.235 706.485 104.873C705.678 106.49 704.449 107.764 702.798 108.696C701.167 109.607 699.203 110.12 696.905 110.235L690.345 110.566L689.284 89.4945L695.844 89.1641ZM696.791 107.968C699.512 107.831 701.552 107.011 702.911 105.508C704.268 103.985 704.882 101.923 704.751 99.3233C704.619 96.7032 703.79 94.6941 702.265 93.2959C700.76 91.8967 698.657 91.2652 695.956 91.4012L692.147 91.5931L692.982 108.16L696.791 107.968ZM726.386 99.8096C726.413 100.334 726.41 100.889 726.379 101.477L713.138 102.144C713.321 103.771 713.939 105.023 714.994 105.9C716.067 106.755 717.33 107.146 718.781 107.073C719.97 107.013 720.944 106.691 721.702 106.107C722.48 105.502 723.007 104.728 723.283 103.785L726.245 103.636C725.882 105.25 725.061 106.595 723.782 107.669C722.501 108.724 720.873 109.301 718.898 109.4C717.326 109.48 715.898 109.198 714.612 108.556C713.347 107.912 712.33 106.963 711.559 105.709C710.788 104.434 710.359 102.94 710.273 101.227C710.187 99.5142 710.454 97.9955 711.074 96.6711C711.694 95.3467 712.602 94.3109 713.797 93.5637C715.011 92.7954 716.424 92.3706 718.036 92.2894C719.608 92.2102 721.016 92.4828 722.26 93.1071C723.504 93.7315 724.479 94.632 725.184 95.8088C725.909 96.9644 726.31 98.298 726.386 99.8096ZM723.515 99.3783C723.463 98.3303 723.186 97.4451 722.685 96.7227C722.182 95.9802 721.519 95.4378 720.693 95.0955C719.887 94.732 719 94.5746 718.033 94.6233C716.642 94.6934 715.475 95.1967 714.532 96.1332C713.61 97.0687 713.117 98.326 713.055 99.9052L723.515 99.3783ZM736.345 108.522C735.076 108.586 733.926 108.431 732.897 108.059C731.867 107.666 731.041 107.102 730.417 106.365C729.793 105.609 729.426 104.728 729.315 103.723L732.156 103.58C732.279 104.403 732.696 105.058 733.407 105.548C734.139 106.036 735.069 106.252 736.198 106.195C737.246 106.143 738.06 105.869 738.642 105.375C739.223 104.881 739.496 104.281 739.46 103.576C739.424 102.85 739.074 102.333 738.412 102.022C737.749 101.692 736.734 101.39 735.366 101.115C734.12 100.855 733.096 100.583 732.294 100.3C731.511 99.996 730.821 99.5357 730.224 98.9192C729.647 98.2815 729.331 97.4285 729.277 96.3604C729.234 95.5139 729.447 94.7252 729.916 93.9945C730.384 93.2637 731.072 92.6734 731.978 92.2236C732.884 91.7537 733.932 91.4888 735.121 91.4289C736.955 91.3365 738.459 91.7254 739.635 92.5957C740.81 93.4659 741.479 94.7052 741.64 96.3135L738.889 96.4521C738.785 95.5885 738.398 94.9109 737.726 94.4194C737.075 93.9268 736.215 93.7075 735.147 93.7613C734.16 93.811 733.384 94.0622 732.821 94.5149C732.258 94.9676 731.994 95.5365 732.028 96.2218C732.056 96.766 732.25 97.2108 732.611 97.5563C732.991 97.8807 733.448 98.1405 733.983 98.3358C734.538 98.5099 735.295 98.7042 736.256 98.9185C737.461 99.181 738.445 99.4548 739.207 99.7397C739.967 100.004 740.626 100.436 741.181 101.034C741.757 101.632 742.08 102.434 742.151 103.441C742.197 104.347 741.986 105.176 741.519 105.927C741.051 106.678 740.365 107.289 739.459 107.759C738.572 108.207 737.534 108.462 736.345 108.522ZM746.712 88.4203C746.188 88.4467 745.736 88.2877 745.355 87.9432C744.974 87.5987 744.77 87.1644 744.744 86.6404C744.717 86.1164 744.876 85.6638 745.221 85.2828C745.565 84.9017 746 84.698 746.524 84.6716C747.027 84.6462 747.46 84.8063 747.821 85.1518C748.202 85.4963 748.405 85.9306 748.432 86.4546C748.458 86.9786 748.299 87.4312 747.955 87.8122C747.63 88.1922 747.216 88.395 746.712 88.4203ZM748.178 91.0439L749.013 107.611L746.261 107.749L745.427 91.1825L748.178 91.0439ZM759.685 90.1916C761.116 90.1195 762.382 90.3689 763.481 90.9399C764.601 91.5099 765.447 92.2553 766.019 93.1762L765.866 90.153L768.648 90.0129L769.5 106.943C769.577 108.454 769.322 109.811 768.736 111.012C768.15 112.234 767.27 113.207 766.094 113.933C764.939 114.658 763.565 115.061 761.973 115.141C759.796 115.251 757.956 114.828 756.453 113.874C754.95 112.919 754.023 111.561 753.672 109.801L756.393 109.664C756.746 110.656 757.411 111.431 758.389 111.988C759.368 112.565 760.522 112.82 761.852 112.753C763.364 112.677 764.569 112.141 765.469 111.146C766.389 110.15 766.805 108.796 766.719 107.083L766.544 103.606C766.049 104.601 765.283 105.448 764.247 106.146C763.212 106.845 761.978 107.231 760.547 107.303C759.076 107.377 757.718 107.081 756.472 106.417C755.246 105.751 754.258 104.781 753.506 103.505C752.755 102.23 752.337 100.755 752.253 99.0825C752.168 97.3896 752.436 95.891 753.057 94.5867C753.677 93.2623 754.564 92.2175 755.718 91.4522C756.892 90.6859 758.214 90.2657 759.685 90.1916ZM766.282 98.4062C766.219 97.1566 765.912 96.081 765.362 95.1793C764.811 94.2775 764.091 93.6067 763.2 93.1666C762.328 92.7054 761.378 92.5007 760.35 92.5524C759.322 92.6042 758.397 92.8933 757.575 93.4196C756.753 93.9459 756.113 94.6854 755.656 95.6378C755.199 96.5903 755.002 97.6913 755.065 98.9409C755.129 100.211 755.436 101.306 755.988 102.228C756.539 103.13 757.25 103.812 758.122 104.273C758.992 104.714 759.942 104.908 760.97 104.857C761.998 104.805 762.923 104.516 763.745 103.99C764.586 103.442 765.235 102.692 765.692 101.74C766.148 100.767 766.345 99.6558 766.282 98.4062ZM781.353 89.0698C783.369 88.9683 785.032 89.5008 786.344 90.6673C787.654 91.8136 788.367 93.5356 788.483 95.8332L788.975 105.598L786.254 105.735L785.782 96.3632C785.699 94.7106 785.222 93.4717 784.352 92.6467C783.481 91.8015 782.33 91.415 780.899 91.4871C779.448 91.5602 778.312 92.072 777.491 93.0226C776.69 93.9722 776.334 95.3136 776.421 97.0469L776.882 106.207L774.131 106.346L773.297 89.7787L776.048 89.6402L776.167 91.9982C776.668 91.1243 777.371 90.4323 778.274 89.922C779.198 89.4108 780.225 89.1267 781.353 89.0698Z" fill="white"/>
<rect x="833.856" y="85.1016" width="14.8995" height="14.8995" rx="1.6555" transform="rotate(-3.27194 833.856 85.1016)" fill="#FC2D5F"/>
<rect x="852.037" y="84.0625" width="14.8995" height="14.8995" rx="1.6555" transform="rotate(-3.27194 852.037 84.0625)" fill="#26A5C6"/>
<rect x="870.218" y="83.0234" width="14.8995" height="14.8995" rx="1.6555" transform="rotate(-3.27194 870.218 83.0234)" fill="#0CA784"/>
<rect x="888.399" y="81.9844" width="14.8995" height="14.8995" rx="1.6555" transform="rotate(-3.27194 888.399 81.9844)" fill="#FF4239"/>
<path d="M960.454 75.8362L960.567 78.0733L951.407 78.5347L951.764 85.6391L959.201 85.2646L959.314 87.5017L951.877 87.8763L952.355 97.369L949.604 97.5076L948.543 76.4362L960.454 75.8362ZM963.39 88.4481C963.305 86.7551 963.573 85.2565 964.194 83.9523C964.814 82.6279 965.701 81.583 966.855 80.8178C968.028 80.0514 969.351 79.6312 970.822 79.5571C972.273 79.484 973.549 79.733 974.648 80.304C975.748 80.8749 976.584 81.6209 977.155 82.5417L977.003 79.5186L979.784 79.3785L980.619 95.9454L977.838 96.0855L977.682 93.0018C977.187 93.9967 976.411 94.844 975.355 95.5437C974.319 96.2223 973.085 96.5976 971.654 96.6697C970.183 96.7438 968.834 96.448 967.608 95.7824C966.383 95.1167 965.394 94.1461 964.643 92.8706C963.892 91.5951 963.474 90.1209 963.39 88.4481ZM977.419 87.7718C977.356 86.5222 977.049 85.4466 976.499 84.5448C975.948 83.6431 975.227 82.9722 974.336 82.5322C973.464 82.071 972.514 81.8662 971.487 81.918C970.459 81.9698 969.534 82.2588 968.712 82.7852C967.889 83.3115 967.25 84.0509 966.793 85.0034C966.336 85.9559 966.138 87.0569 966.201 88.3065C966.265 89.5762 966.573 90.672 967.125 91.5939C967.675 92.4956 968.386 93.1771 969.258 93.6383C970.129 94.0794 971.078 94.274 972.106 94.2223C973.134 94.1705 974.059 93.8814 974.881 93.3551C975.723 92.8076 976.372 92.0576 976.829 91.1051C977.285 90.1325 977.482 89.0214 977.419 87.7718ZM983.821 87.4493C983.735 85.7362 984.002 84.2275 984.624 82.9232C985.244 81.5989 986.141 80.5535 987.315 79.7872C988.509 79.0199 989.892 78.5966 991.464 78.5174C993.499 78.4149 995.197 78.8244 996.557 79.746C997.937 80.6666 998.882 81.9929 999.394 83.725L996.431 83.8742C996.098 82.8807 995.504 82.1125 994.648 81.5697C993.813 81.0258 992.79 80.7843 991.581 80.8453C990.009 80.9244 988.767 81.5326 987.854 82.6696C986.94 83.7865 986.533 85.3325 986.633 87.3077C986.733 89.303 987.295 90.8204 988.317 91.86C989.339 92.8996 990.636 93.3798 992.208 93.3007C993.418 93.2397 994.411 92.9068 995.189 92.3019C995.967 91.697 996.48 90.8629 996.73 89.7996L999.692 89.6504C999.334 91.3657 998.516 92.7708 997.238 93.8657C995.958 94.9404 994.321 95.528 992.326 95.6285C990.754 95.7077 989.335 95.4255 988.07 94.782C986.825 94.1375 985.828 93.1876 985.078 91.9323C984.327 90.6769 983.909 89.1826 983.821 87.4493ZM1004.08 75.4572C1003.56 75.4836 1003.11 75.3245 1002.72 74.98C1002.34 74.6355 1002.14 74.2012 1002.11 73.6772C1002.09 73.1532 1002.25 72.7007 1002.59 72.3196C1002.94 71.9386 1003.37 71.7349 1003.89 71.7085C1004.4 71.6831 1004.83 71.8432 1005.19 72.1887C1005.57 72.5332 1005.78 72.9674 1005.8 73.4915C1005.83 74.0155 1005.67 74.468 1005.32 74.8491C1005 75.2291 1004.59 75.4318 1004.08 75.4572ZM1005.55 78.0808L1006.38 94.6477L1003.63 94.7863L1002.8 78.2194L1005.55 78.0808ZM1012.7 71.9016L1013.82 94.2729L1011.07 94.4115L1009.94 72.0402L1012.7 71.9016ZM1018.96 74.7077C1018.44 74.7341 1017.99 74.575 1017.6 74.2305C1017.22 73.886 1017.02 73.4518 1016.99 72.9278C1016.97 72.4037 1017.13 71.9512 1017.47 71.5702C1017.81 71.1891 1018.25 70.9854 1018.77 70.959C1019.28 70.9336 1019.71 71.0937 1020.07 71.4392C1020.45 71.7837 1020.65 72.218 1020.68 72.742C1020.71 73.266 1020.55 73.7185 1020.2 74.0996C1019.88 74.4796 1019.47 74.6823 1018.96 74.7077ZM1020.43 77.3313L1021.26 93.8982L1018.51 94.0368L1017.68 77.4699L1020.43 77.3313ZM1028.59 79.1935L1029.08 88.9583C1029.12 89.7645 1029.32 90.3302 1029.68 90.6556C1030.04 90.9608 1030.64 91.0921 1031.49 91.0495L1033.51 90.9474L1033.63 93.2753L1031.15 93.4001C1029.62 93.4773 1028.45 93.1824 1027.65 92.5156C1026.85 91.8488 1026.41 90.7092 1026.33 89.0968L1025.83 79.3321L1023.69 79.4402L1023.57 77.1728L1025.72 77.0647L1025.51 72.8927L1028.26 72.7542L1028.47 76.9261L1032.79 76.7084L1032.91 78.9757L1028.59 79.1935ZM1050.4 75.8217L1041.65 100.691L1038.81 100.834L1041.67 92.6884L1034.16 76.6394L1037.22 76.4857L1043.09 89.6466L1047.56 75.9649L1050.4 75.8217ZM1082.38 69.8465L1083.43 90.7668L1080.68 90.9054L1079.89 75.3059L1073.73 91.2556L1071.79 91.353L1064.02 76.0751L1064.81 91.7048L1062.06 91.8434L1061 70.9231L1063.97 70.7739L1072.58 87.6765L1079.44 69.9943L1082.38 69.8465ZM1086.65 82.2396C1086.56 80.5467 1086.83 79.0481 1087.45 77.7438C1088.07 76.4194 1088.96 75.3746 1090.11 74.6093C1091.29 73.843 1092.61 73.4228 1094.08 73.3487C1095.53 73.2756 1096.81 73.5245 1097.91 74.0955C1099.01 74.6665 1099.84 75.4124 1100.41 76.3333L1100.26 73.3101L1103.04 73.17L1103.88 89.7369L1101.1 89.877L1100.94 86.7934C1100.45 87.7882 1099.67 88.6355 1098.61 89.3353C1097.58 90.0138 1096.34 90.3892 1094.91 90.4613C1093.44 90.5354 1092.09 90.2396 1090.87 89.5739C1089.64 88.9083 1088.65 87.9377 1087.9 86.6621C1087.15 85.3866 1086.73 83.9125 1086.65 82.2396ZM1100.68 81.5633C1100.61 80.3138 1100.31 79.2381 1099.76 78.3364C1099.21 77.4347 1098.49 76.7638 1097.59 76.3237C1096.72 75.8625 1095.77 75.6578 1094.75 75.7096C1093.72 75.7613 1092.79 76.0504 1091.97 76.5767C1091.15 77.1031 1090.51 77.8425 1090.05 78.795C1089.59 79.7474 1089.4 80.8485 1089.46 82.098C1089.52 83.3678 1089.83 84.4636 1090.38 85.3854C1090.93 86.2872 1091.64 86.9686 1092.52 87.4299C1093.39 87.8709 1094.34 88.0656 1095.36 88.0138C1096.39 87.962 1097.32 87.673 1098.14 87.1466C1098.98 86.5991 1099.63 85.8491 1100.09 84.8966C1100.54 83.924 1100.74 82.8129 1100.68 81.5633ZM1115.75 72.227C1117.76 72.1254 1119.43 72.6579 1120.74 73.8244C1122.05 74.9707 1122.76 76.6927 1122.88 78.9903L1123.37 88.7551L1120.65 88.8921L1120.18 79.5203C1120.09 77.8677 1119.62 76.6288 1118.75 75.8038C1117.88 74.9587 1116.73 74.5721 1115.29 74.6442C1113.84 74.7173 1112.71 75.2291 1111.89 76.1797C1111.09 77.1293 1110.73 78.4707 1110.82 80.204L1111.28 89.3642L1108.53 89.5027L1107.69 72.9358L1110.44 72.7973L1110.56 75.1553C1111.06 74.2814 1111.77 73.5894 1112.67 73.0791C1113.59 72.5679 1114.62 72.2838 1115.75 72.227ZM1126.42 80.2366C1126.33 78.5436 1126.6 77.045 1127.22 75.7408C1127.84 74.4164 1128.73 73.3715 1129.88 72.6062C1131.05 71.8399 1132.38 71.4197 1133.85 71.3456C1135.3 71.2725 1136.57 71.5215 1137.67 72.0924C1138.77 72.6634 1139.61 73.4093 1140.18 74.3302L1140.03 71.307L1142.81 71.167L1143.64 87.7339L1140.86 87.8739L1140.71 84.7903C1140.21 85.7851 1139.44 86.6324 1138.38 87.3322C1137.34 88.0108 1136.11 88.3861 1134.68 88.4582C1133.21 88.5323 1131.86 88.2365 1130.63 87.5709C1129.41 86.9052 1128.42 85.9346 1127.67 84.6591C1126.92 83.3836 1126.5 81.9094 1126.42 80.2366ZM1140.44 79.5603C1140.38 78.3107 1140.08 77.235 1139.52 76.3333C1138.97 75.4316 1138.25 74.7607 1137.36 74.3207C1136.49 73.8594 1135.54 73.6547 1134.51 73.7065C1133.48 73.7583 1132.56 74.0473 1131.74 74.5737C1130.92 75.1 1130.28 75.8394 1129.82 76.7919C1129.36 77.7444 1129.16 78.8454 1129.23 80.095C1129.29 81.3647 1129.6 82.4605 1130.15 83.3824C1130.7 84.2841 1131.41 84.9656 1132.28 85.4268C1133.16 85.8679 1134.1 86.0625 1135.13 86.0107C1136.16 85.959 1137.09 85.6699 1137.91 85.1436C1138.75 84.596 1139.4 83.8461 1139.86 82.8936C1140.31 81.9209 1140.51 80.8098 1140.44 79.5603ZM1154.28 70.3166C1155.71 70.2445 1156.97 70.4939 1158.07 71.0649C1159.19 71.6349 1160.04 72.3803 1160.61 73.3012L1160.46 70.278L1163.24 70.1379L1164.09 87.0676C1164.17 88.5792 1163.91 89.9357 1163.33 91.1371C1162.74 92.3587 1161.86 93.3325 1160.69 94.0585C1159.53 94.7835 1158.16 95.1861 1156.57 95.2663C1154.39 95.3759 1152.55 94.9534 1151.05 93.9986C1149.54 93.0438 1148.62 91.6862 1148.26 89.9258L1150.99 89.7888C1151.34 90.7813 1152 91.556 1152.98 92.1129C1153.96 92.69 1155.11 92.945 1156.44 92.878C1157.96 92.8019 1159.16 92.2663 1160.06 91.2713C1160.98 90.2754 1161.4 88.9208 1161.31 87.2077L1161.14 83.7311C1160.64 84.7259 1159.88 85.5727 1158.84 86.2714C1157.8 86.9701 1156.57 87.3555 1155.14 87.4276C1153.67 87.5017 1152.31 87.2065 1151.06 86.5418C1149.84 85.8762 1148.85 84.9056 1148.1 83.63C1147.35 82.3545 1146.93 80.8804 1146.85 79.2075C1146.76 77.5146 1147.03 76.016 1147.65 74.7117C1148.27 73.3873 1149.16 72.3425 1150.31 71.5772C1151.48 70.8109 1152.81 70.3907 1154.28 70.3166ZM1160.87 78.5312C1160.81 77.2817 1160.51 76.206 1159.95 75.3043C1159.4 74.4026 1158.68 73.7317 1157.79 73.2916C1156.92 72.8304 1155.97 72.6257 1154.94 72.6774C1153.91 72.7292 1152.99 73.0183 1152.17 73.5446C1151.35 74.071 1150.71 74.8104 1150.25 75.7629C1149.79 76.7153 1149.59 77.8164 1149.66 79.0659C1149.72 80.3357 1150.03 81.4315 1150.58 82.3533C1151.13 83.2551 1151.84 83.9365 1152.71 84.3977C1153.59 84.8388 1154.53 85.0335 1155.56 84.9817C1156.59 84.9299 1157.52 84.6409 1158.34 84.1145C1159.18 83.567 1159.83 82.817 1160.28 81.8645C1160.74 80.8919 1160.94 79.7808 1160.87 78.5312ZM1183.39 76.791C1183.42 77.315 1183.41 77.8707 1183.38 78.4583L1170.14 79.1252C1170.33 80.7527 1170.94 82.0045 1172 82.8809C1173.07 83.7361 1174.33 84.1271 1175.79 84.054C1176.97 83.9941 1177.95 83.6723 1178.71 83.0885C1179.48 82.4836 1180.01 81.7095 1180.29 80.7661L1183.25 80.6169C1182.89 82.2314 1182.07 83.576 1180.79 84.6508C1179.51 85.7053 1177.88 86.2823 1175.9 86.3818C1174.33 86.461 1172.9 86.1794 1171.62 85.5369C1170.35 84.8934 1169.33 83.9445 1168.56 82.6902C1167.79 81.4157 1167.36 79.9219 1167.28 78.2087C1167.19 76.4956 1167.46 74.9769 1168.08 73.6525C1168.7 72.3281 1169.61 71.2923 1170.8 70.5451C1172.02 69.7768 1173.43 69.352 1175.04 69.2708C1176.61 69.1916 1178.02 69.4642 1179.26 70.0885C1180.51 70.7128 1181.48 71.6134 1182.19 72.7902C1182.91 73.9458 1183.31 75.2794 1183.39 76.791ZM1180.52 76.3597C1180.47 75.3117 1180.19 74.4265 1179.69 73.7041C1179.19 72.9616 1178.52 72.4192 1177.7 72.0768C1176.89 71.7133 1176 71.556 1175.04 71.6047C1173.65 71.6747 1172.48 72.178 1171.54 73.1146C1170.61 74.0501 1170.12 75.3074 1170.06 76.8866L1180.52 76.3597ZM1206.54 67.6537C1207.83 67.5887 1209 67.8029 1210.03 68.2963C1211.07 68.7696 1211.9 69.5256 1212.54 70.5643C1213.18 71.6031 1213.54 72.8883 1213.61 74.42L1214.1 84.1848L1211.38 84.3219L1210.91 74.9501C1210.83 73.2974 1210.35 72.0586 1209.48 71.2336C1208.63 70.3874 1207.51 69.9993 1206.12 70.0694C1204.69 70.1414 1203.57 70.6623 1202.77 71.6321C1201.97 72.5817 1201.62 73.9231 1201.7 75.6564L1202.16 84.7863L1199.44 84.9234L1198.97 75.5516C1198.89 73.8989 1198.41 72.6601 1197.54 71.8351C1196.69 70.9889 1195.57 70.6008 1194.18 70.6708C1192.75 70.7429 1191.63 71.2638 1190.83 72.2336C1190.03 73.1832 1189.67 74.5246 1189.76 76.2579L1190.22 85.3878L1187.47 85.5264L1186.64 68.9595L1189.39 68.8209L1189.51 71.2092C1190.01 70.3151 1190.7 69.6135 1191.58 69.1043C1192.49 68.594 1193.49 68.311 1194.6 68.2551C1195.99 68.1851 1197.24 68.4356 1198.34 69.0065C1199.44 69.5775 1200.28 70.4545 1200.86 71.6373C1201.27 70.445 1201.99 69.4995 1203.03 68.8008C1204.06 68.102 1205.23 67.7196 1206.54 67.6537ZM1233.28 74.2778C1233.31 74.8018 1233.31 75.3576 1233.28 75.9451L1220.04 76.6121C1220.22 78.2395 1220.84 79.4914 1221.89 80.3678C1222.97 81.2229 1224.23 81.614 1225.68 81.5409C1226.87 81.481 1227.84 81.1592 1228.6 80.5754C1229.38 79.9705 1229.91 79.1963 1230.18 78.253L1233.14 78.1038C1232.78 79.7183 1231.96 81.0629 1230.68 82.1376C1229.4 83.1922 1227.77 83.7692 1225.8 83.8687C1224.22 83.9479 1222.8 83.6663 1221.51 83.0238C1220.25 82.3803 1219.23 81.4314 1218.46 80.177C1217.69 78.9025 1217.26 77.4087 1217.17 75.6956C1217.08 73.9825 1217.35 72.4637 1217.97 71.1393C1218.59 69.8149 1219.5 68.7792 1220.69 68.032C1221.91 67.2636 1223.32 66.8389 1224.93 66.7576C1226.51 66.6785 1227.91 66.951 1229.16 67.5754C1230.4 68.1997 1231.38 69.1003 1232.08 70.2771C1232.81 71.4327 1233.21 72.7663 1233.28 74.2778ZM1230.41 73.8466C1230.36 72.7985 1230.08 71.9133 1229.58 71.191C1229.08 70.4485 1228.42 69.906 1227.59 69.5637C1226.79 69.2002 1225.9 69.0428 1224.93 69.0916C1223.54 69.1616 1222.37 69.6649 1221.43 70.6014C1220.51 71.537 1220.02 72.7943 1219.95 74.3734L1230.41 73.8466ZM1244.59 65.7375C1246.6 65.6359 1248.27 66.1684 1249.58 67.3349C1250.89 68.4812 1251.6 70.2032 1251.72 72.5008L1252.21 82.2656L1249.49 82.4026L1249.02 73.0308C1248.93 71.3782 1248.46 70.1393 1247.59 69.3143C1246.71 68.4691 1245.56 68.0826 1244.13 68.1547C1242.68 68.2278 1241.55 68.7396 1240.72 69.6902C1239.92 70.6398 1239.57 71.9812 1239.65 73.7145L1240.12 82.8747L1237.36 83.0132L1236.53 66.4463L1239.28 66.3078L1239.4 68.6658C1239.9 67.7919 1240.6 67.0999 1241.51 66.5896C1242.43 66.0784 1243.46 65.7943 1244.59 65.7375ZM1259.34 67.5707L1259.83 77.3355C1259.87 78.1416 1260.07 78.7074 1260.43 79.0328C1260.79 79.338 1261.39 79.4693 1262.24 79.4266L1264.26 79.3246L1264.38 81.6524L1261.9 81.7773C1260.37 81.8545 1259.2 81.5596 1258.4 80.8928C1257.6 80.226 1257.16 79.0864 1257.08 77.474L1256.59 67.7092L1254.44 67.8173L1254.33 65.55L1256.47 65.4419L1256.26 61.2699L1259.01 61.1313L1259.22 65.3033L1263.55 65.0855L1263.66 67.3529L1259.34 67.5707Z" fill="white"/>
<rect x="1307.92" y="61.2227" width="14.8995" height="14.8995" rx="1.6555" transform="rotate(-3.27194 1307.92 61.2227)" fill="#FC2D5F"/>
<rect x="1326.1" y="60.1836" width="14.8995" height="14.8995" rx="1.6555" transform="rotate(-3.27194 1326.1 60.1836)" fill="#26A5C6"/>
<rect x="1344.28" y="59.1445" width="14.8995" height="14.8995" rx="1.6555" transform="rotate(-3.27194 1344.28 59.1445)" fill="#0CA784"/>
<rect x="1362.46" y="58.1035" width="14.8995" height="14.8995" rx="1.6555" transform="rotate(-3.27194 1362.46 58.1035)" fill="#FF4239"/>
<path d="M1435.89 68.3173L1426.69 68.7803L1425.24 73.5514L1422.34 73.6976L1428.9 52.3634L1432.07 52.2035L1440.72 72.7718L1437.81 72.918L1435.89 68.3173ZM1434.99 66.1198L1430.64 55.6702L1427.37 66.5035L1434.99 66.1198ZM1446.09 58.5897C1446.52 57.6181 1447.17 56.8479 1448.03 56.2792C1448.91 55.7095 1450 55.3922 1451.29 55.3272L1451.43 58.169L1450.71 58.2055C1447.62 58.3609 1446.17 60.1113 1446.33 63.457L1446.79 72.466L1444.04 72.6045L1443.2 56.0376L1445.95 55.8991L1446.09 58.5897ZM1453.87 63.7746C1453.78 62.0615 1454.05 60.5528 1454.67 59.2485C1455.29 57.9241 1456.19 56.8788 1457.36 56.1125C1458.56 55.3451 1459.94 54.9219 1461.51 54.8427C1463.55 54.7402 1465.24 55.1497 1466.6 56.0713C1467.98 56.9918 1468.93 58.3182 1469.44 60.0503L1466.48 60.1995C1466.14 59.206 1465.55 58.4378 1464.69 57.895C1463.86 57.3511 1462.84 57.1096 1461.63 57.1705C1460.06 57.2497 1458.81 57.8578 1457.9 58.9949C1456.99 60.1118 1456.58 61.6578 1456.68 63.633C1456.78 65.6282 1457.34 67.1457 1458.36 68.1853C1459.39 69.2249 1460.68 69.7051 1462.25 69.6259C1463.46 69.565 1464.46 69.2321 1465.24 68.6272C1466.01 68.0223 1466.53 67.1882 1466.78 66.1249L1469.74 65.9757C1469.38 67.691 1468.56 69.0961 1467.28 70.1909C1466 71.2657 1464.37 71.8533 1462.37 71.9538C1460.8 72.033 1459.38 71.7508 1458.12 71.1073C1456.87 70.4628 1455.87 69.5129 1455.12 68.2575C1454.37 67.0022 1453.95 65.5079 1453.87 63.7746ZM1481.05 53.8281C1482.3 53.7652 1483.44 53.9804 1484.48 54.4738C1485.51 54.9471 1486.34 55.7036 1486.96 56.7434C1487.59 57.7821 1487.95 59.0673 1488.03 60.5991L1488.52 70.3639L1485.8 70.5009L1485.33 61.1291C1485.25 59.4765 1484.77 58.2376 1483.9 57.4126C1483.03 56.5674 1481.88 56.1809 1480.45 56.253C1478.99 56.3261 1477.86 56.8379 1477.04 57.7885C1476.24 58.7381 1475.88 60.0795 1475.97 61.8128L1476.43 70.973L1473.68 71.1115L1472.55 48.7402L1475.3 48.6016L1475.71 56.7641C1476.21 55.8902 1476.93 55.1977 1477.85 54.6864C1478.8 54.1741 1479.86 53.888 1481.05 53.8281ZM1493.47 50.8084C1492.94 50.8348 1492.49 50.6758 1492.11 50.3313C1491.73 49.9868 1491.52 49.5525 1491.5 49.0285C1491.47 48.5045 1491.63 48.052 1491.97 47.6709C1492.32 47.2898 1492.75 47.0861 1493.28 47.0597C1493.78 47.0344 1494.21 47.1944 1494.57 47.5399C1494.96 47.8844 1495.16 48.3187 1495.19 48.8427C1495.21 49.3667 1495.05 49.8193 1494.71 50.2003C1494.38 50.5804 1493.97 50.7831 1493.47 50.8084ZM1494.93 53.4321L1495.77 69.9989L1493.02 70.1375L1492.18 53.5706L1494.93 53.4321ZM1503.09 55.2942L1503.58 65.059C1503.62 65.8652 1503.82 66.431 1504.18 66.7563C1504.54 67.0615 1505.14 67.1928 1505.99 67.1502L1508.02 67.0482L1508.13 69.376L1505.65 69.5009C1504.12 69.578 1502.96 69.2832 1502.16 68.6164C1501.35 67.9495 1500.91 66.8099 1500.83 65.1976L1500.34 55.4328L1498.19 55.5409L1498.08 53.2735L1500.23 53.1654L1500.01 48.9935L1502.77 48.8549L1502.98 53.0269L1507.3 52.8091L1507.41 55.0765L1503.09 55.2942ZM1526.13 59.5284C1526.16 60.0524 1526.16 60.6082 1526.13 61.1957L1512.89 61.8627C1513.07 63.4901 1513.69 64.742 1514.74 65.6183C1515.81 66.4735 1517.08 66.8646 1518.53 66.7915C1519.72 66.7316 1520.69 66.4097 1521.45 65.826C1522.23 65.2211 1522.75 64.4469 1523.03 63.5036L1525.99 63.3544C1525.63 64.9689 1524.81 66.3135 1523.53 67.3882C1522.25 68.4428 1520.62 69.0198 1518.65 69.1193C1517.07 69.1985 1515.65 68.9168 1514.36 68.2744C1513.09 67.6309 1512.08 66.682 1511.31 65.4276C1510.54 64.1531 1510.11 62.6593 1510.02 60.9462C1509.93 59.2331 1510.2 57.7143 1510.82 56.3899C1511.44 55.0655 1512.35 54.0297 1513.54 53.2826C1514.76 52.5142 1516.17 52.0894 1517.78 52.0082C1519.36 51.9291 1520.76 52.2016 1522.01 52.826C1523.25 53.4503 1524.23 54.3509 1524.93 55.5276C1525.66 56.6833 1526.06 58.0168 1526.13 59.5284ZM1523.26 59.0972C1523.21 58.0491 1522.93 57.1639 1522.43 56.4416C1521.93 55.6991 1521.27 55.1566 1520.44 54.8143C1519.63 54.4508 1518.75 54.2934 1517.78 54.3422C1516.39 54.4122 1515.22 54.9155 1514.28 55.852C1513.36 56.7876 1512.86 58.0449 1512.8 59.624L1523.26 59.0972ZM1528.77 60.0019C1528.68 58.2888 1528.95 56.7801 1529.57 55.4759C1530.19 54.1515 1531.09 53.1061 1532.26 52.3398C1533.45 51.5725 1534.84 51.1492 1536.41 51.07C1538.45 50.9675 1540.14 51.377 1541.5 52.2986C1542.88 53.2192 1543.83 54.5455 1544.34 56.2776L1541.38 56.4269C1541.04 55.4334 1540.45 54.6652 1539.59 54.1223C1538.76 53.5784 1537.74 53.337 1536.53 53.3979C1534.96 53.4771 1533.71 54.0852 1532.8 55.2222C1531.89 56.3392 1531.48 57.8852 1531.58 59.8603C1531.68 61.8556 1532.24 63.373 1533.26 64.4126C1534.29 65.4523 1535.58 65.9325 1537.15 65.8533C1538.36 65.7924 1539.36 65.4595 1540.14 64.8545C1540.91 64.2496 1541.43 63.4155 1541.68 62.3522L1544.64 62.203C1544.28 63.9183 1543.46 65.3234 1542.18 66.4183C1540.9 67.493 1539.27 68.0806 1537.27 68.1811C1535.7 68.2603 1534.28 67.9781 1533.02 67.3347C1531.77 66.6902 1530.77 65.7402 1530.02 64.4849C1529.27 63.2295 1528.85 61.7352 1528.77 60.0019ZM1551.21 52.8703L1551.7 62.6351C1551.75 63.4413 1551.95 64.0071 1552.31 64.3324C1552.66 64.6376 1553.27 64.7689 1554.11 64.7263L1556.14 64.6243L1556.26 66.9521L1553.78 67.077C1552.25 67.1541 1551.08 66.8593 1550.28 66.1925C1549.48 65.5256 1549.03 64.386 1548.95 62.7737L1548.46 53.0089L1546.32 53.117L1546.2 50.8496L1548.35 50.7415L1548.14 46.5696L1550.89 46.431L1551.1 50.603L1555.42 50.3852L1555.54 52.6526L1551.21 52.8703ZM1573.45 49.4773L1574.28 66.0442L1571.53 66.1827L1571.41 63.734C1570.93 64.6068 1570.22 65.309 1569.3 65.8404C1568.4 66.3507 1567.38 66.6342 1566.25 66.6911C1564.96 66.756 1563.79 66.5524 1562.74 66.0802C1561.68 65.5878 1560.82 64.8227 1560.17 63.785C1559.53 62.7462 1559.17 61.461 1559.09 59.9293L1558.6 50.2249L1561.32 50.0879L1561.8 59.4294C1561.88 61.0619 1562.35 62.3008 1563.23 63.1459C1564.1 63.971 1565.25 64.3474 1566.68 64.2754C1568.15 64.2012 1569.28 63.6894 1570.08 62.7398C1570.89 61.7902 1571.24 60.4488 1571.15 58.7155L1570.7 49.6158L1573.45 49.4773ZM1580.98 51.7953C1581.42 50.8237 1582.06 50.0536 1582.92 49.4849C1583.8 48.9152 1584.89 48.5979 1586.18 48.5329L1586.32 51.3746L1585.6 51.4112C1582.51 51.5665 1581.06 53.317 1581.22 56.6626L1581.68 65.6716L1578.93 65.8102L1578.09 49.2433L1580.84 49.1047L1580.98 51.7953ZM1604.87 55.5624C1604.9 56.0865 1604.9 56.6422 1604.86 57.2298L1591.62 57.8967C1591.81 59.5241 1592.42 60.776 1593.48 61.6524C1594.55 62.5075 1595.82 62.8986 1597.27 62.8255C1598.46 62.7656 1599.43 62.4438 1600.19 61.86C1600.97 61.2551 1601.49 60.4809 1601.77 59.5376L1604.73 59.3884C1604.37 61.0029 1603.55 62.3475 1602.27 63.4222C1600.99 64.4768 1599.36 65.0538 1597.38 65.1533C1595.81 65.2325 1594.38 64.9509 1593.1 64.3084C1591.83 63.6649 1590.82 62.716 1590.04 61.4617C1589.27 60.1872 1588.84 58.6933 1588.76 56.9802C1588.67 55.2671 1588.94 53.7483 1589.56 52.4239C1590.18 51.0996 1591.09 50.0638 1592.28 49.3166C1593.5 48.5483 1594.91 48.1235 1596.52 48.0423C1598.09 47.9631 1599.5 48.2357 1600.75 48.86C1601.99 49.4843 1602.96 50.3849 1603.67 51.5617C1604.39 52.7173 1604.8 54.0509 1604.87 55.5624ZM1602 55.1312C1601.95 54.0832 1601.67 53.198 1601.17 52.4756C1600.67 51.7331 1600 51.1907 1599.18 50.8483C1598.37 50.4848 1597.49 50.3275 1596.52 50.3762C1595.13 50.4462 1593.96 50.9495 1593.02 51.8861C1592.09 52.8216 1591.6 54.0789 1591.54 55.6581L1602 55.1312Z" fill="white"/>
<rect x="1651.14" y="43.9355" width="14.8995" height="14.8995" rx="1.6555" transform="rotate(-3.27194 1651.14 43.9355)" fill="#FC2D5F"/>
<rect x="1669.33" y="42.8965" width="14.8995" height="14.8995" rx="1.6555" transform="rotate(-3.27194 1669.33 42.8965)" fill="#26A5C6"/>
<rect x="1687.51" y="41.8574" width="14.8995" height="14.8995" rx="1.6555" transform="rotate(-3.27194 1687.51 41.8574)" fill="#0CA784"/>
<rect x="1705.69" y="40.8184" width="14.8995" height="14.8995" rx="1.6555" transform="rotate(-3.27194 1705.69 40.8184)" fill="#FF4239"/>
<path d="M1768.69 37.3687L1769.05 44.4127L1776.73 44.0259L1776.84 46.2933L1769.16 46.68L1769.53 53.9356L1778.11 53.5031L1778.23 55.7705L1766.89 56.3415L1765.83 35.2399L1777.17 34.6689L1777.28 36.9363L1768.69 37.3687ZM1793.26 42.7384L1793.38 45.0662L1781.32 45.6738L1781.2 43.346L1793.26 42.7384ZM1804.54 33.3203C1806.84 33.2046 1808.85 33.5379 1810.56 34.3203C1812.3 35.0815 1813.65 36.2359 1814.62 37.7834C1815.6 39.3299 1816.15 41.1814 1816.26 43.3379C1816.37 45.4945 1816.01 47.3917 1815.18 49.0295C1814.38 50.6462 1813.15 51.9205 1811.5 52.8522C1809.86 53.7628 1807.9 54.276 1805.6 54.3917L1799.04 54.7221L1797.98 33.6507L1804.54 33.3203ZM1805.49 52.1243C1808.21 51.9873 1810.25 51.1673 1811.61 49.6642C1812.97 48.141 1813.58 46.0795 1813.45 43.4796C1813.32 40.8595 1812.49 38.8504 1810.96 37.4522C1809.46 36.053 1807.36 35.4214 1804.65 35.5574L1800.85 35.7493L1801.68 52.3162L1805.49 52.1243ZM1835.08 43.9658C1835.11 44.4898 1835.11 45.0456 1835.08 45.6331L1821.84 46.3001C1822.02 47.9275 1822.64 49.1794 1823.69 50.0558C1824.77 50.9109 1826.03 51.302 1827.48 51.2289C1828.67 51.169 1829.64 50.8472 1830.4 50.2634C1831.18 49.6585 1831.7 48.8843 1831.98 47.941L1834.94 47.7918C1834.58 49.4063 1833.76 50.7509 1832.48 51.8256C1831.2 52.8802 1829.57 53.4572 1827.6 53.5567C1826.02 53.6359 1824.6 53.3543 1823.31 52.7118C1822.05 52.0683 1821.03 51.1194 1820.26 49.865C1819.49 48.5905 1819.06 47.0967 1818.97 45.3836C1818.88 43.6705 1819.15 42.1517 1819.77 40.8273C1820.39 39.5029 1821.3 38.4672 1822.49 37.72C1823.71 36.9516 1825.12 36.5269 1826.73 36.4456C1828.31 36.3665 1829.71 36.639 1830.96 37.2634C1832.2 37.8877 1833.18 38.7883 1833.88 39.9651C1834.61 41.1207 1835.01 42.4543 1835.08 43.9658ZM1832.21 43.5346C1832.16 42.4865 1831.88 41.6013 1831.38 40.879C1830.88 40.1365 1830.22 39.594 1829.39 39.2517C1828.58 38.8882 1827.7 38.7308 1826.73 38.7796C1825.34 38.8496 1824.17 39.3529 1823.23 40.2894C1822.31 41.225 1821.82 42.4823 1821.75 44.0614L1832.21 43.5346ZM1845.04 52.6779C1843.77 52.7419 1842.62 52.5876 1841.59 52.2151C1840.56 51.8225 1839.74 51.2579 1839.12 50.5215C1838.49 49.7649 1838.12 48.8843 1838.01 47.8796L1840.85 47.7365C1840.98 48.5588 1841.39 49.2147 1842.1 49.7041C1842.84 50.1926 1843.77 50.4084 1844.9 50.3516C1845.94 50.2988 1846.76 50.0254 1847.34 49.5314C1847.92 49.0374 1848.19 48.4377 1848.16 47.7323C1848.12 47.0067 1847.77 46.4889 1847.11 46.1788C1846.45 45.8485 1845.43 45.546 1844.06 45.2714C1842.82 45.0109 1841.79 44.7391 1840.99 44.4563C1840.21 44.1522 1839.52 43.6919 1838.92 43.0754C1838.34 42.4377 1838.03 41.5848 1837.97 40.5166C1837.93 39.6701 1838.15 38.8815 1838.61 38.1507C1839.08 37.4199 1839.77 36.8297 1840.68 36.3799C1841.58 35.9099 1842.63 35.645 1843.82 35.5851C1845.65 35.4927 1847.16 35.8817 1848.33 36.7519C1849.51 37.6222 1850.18 38.8614 1850.34 40.4697L1847.59 40.6083C1847.48 39.7447 1847.1 39.0672 1846.42 38.5756C1845.77 38.0831 1844.91 37.8637 1843.85 37.9175C1842.86 37.9673 1842.08 38.2185 1841.52 38.6712C1840.96 39.1238 1840.69 39.6928 1840.73 40.378C1840.75 40.9222 1840.95 41.3671 1841.31 41.7126C1841.69 42.0369 1842.15 42.2968 1842.68 42.4921C1843.24 42.6662 1843.99 42.8604 1844.95 43.0747C1846.16 43.3373 1847.14 43.611 1847.9 43.8959C1848.67 44.1607 1849.32 44.5923 1849.88 45.1907C1850.45 45.788 1850.78 46.5901 1850.85 47.5968C1850.89 48.5037 1850.68 49.3327 1850.22 50.0836C1849.75 50.8345 1849.06 51.445 1848.16 51.9149C1847.27 52.3637 1846.23 52.618 1845.04 52.6779ZM1855.41 32.5766C1854.89 32.603 1854.43 32.4439 1854.05 32.0994C1853.67 31.7549 1853.47 31.3207 1853.44 30.7966C1853.42 30.2726 1853.57 29.8201 1853.92 29.439C1854.26 29.058 1854.7 28.8543 1855.22 28.8279C1855.73 28.8025 1856.16 28.9626 1856.52 29.3081C1856.9 29.6526 1857.1 30.0869 1857.13 30.6109C1857.16 31.1349 1857 31.5874 1856.65 31.9685C1856.33 32.3485 1855.91 32.5512 1855.41 32.5766ZM1856.88 35.2002L1857.71 51.7671L1854.96 51.9057L1854.12 35.3388L1856.88 35.2002ZM1868.38 34.3478C1869.81 34.2757 1871.08 34.5252 1872.18 35.0962C1873.3 35.6661 1874.14 36.4115 1874.72 37.3324L1874.56 34.3092L1877.35 34.1692L1878.2 51.0988C1878.27 52.6104 1878.02 53.9669 1877.43 55.1684C1876.85 56.3899 1875.97 57.3637 1874.79 58.0898C1873.64 58.8147 1872.26 59.2173 1870.67 59.2975C1868.49 59.4072 1866.65 58.9846 1865.15 58.0298C1863.65 57.075 1862.72 55.7174 1862.37 53.9571L1865.09 53.82C1865.44 54.8125 1866.11 55.5872 1867.09 56.1441C1868.07 56.7212 1869.22 56.9762 1870.55 56.9092C1872.06 56.8331 1873.27 56.2975 1874.17 55.3026C1875.09 54.3066 1875.5 52.952 1875.42 51.2389L1875.24 47.7623C1874.75 48.7571 1873.98 49.6039 1872.95 50.3026C1871.91 51.0014 1870.68 51.3868 1869.25 51.4589C1867.77 51.533 1866.42 51.2377 1865.17 50.5731C1863.94 49.9074 1862.96 48.9368 1862.2 47.6613C1861.45 46.3858 1861.04 44.9116 1860.95 43.2388C1860.87 41.5458 1861.13 40.0472 1861.75 38.743C1862.38 37.4186 1863.26 36.3737 1864.42 35.6084C1865.59 34.8421 1866.91 34.4219 1868.38 34.3478ZM1874.98 42.5625C1874.92 41.3129 1874.61 40.2372 1874.06 39.3355C1873.51 38.4338 1872.79 37.7629 1871.9 37.3229C1871.03 36.8616 1870.08 36.6569 1869.05 36.7087C1868.02 36.7605 1867.09 37.0495 1866.27 37.5759C1865.45 38.1022 1864.81 38.8416 1864.35 39.7941C1863.9 40.7466 1863.7 41.8476 1863.76 43.0972C1863.83 44.3669 1864.13 45.4627 1864.69 46.3846C1865.24 47.2863 1865.95 47.9678 1866.82 48.429C1867.69 48.8701 1868.64 49.0647 1869.67 49.0129C1870.7 48.9612 1871.62 48.6721 1872.44 48.1458C1873.28 47.5982 1873.93 46.8483 1874.39 45.8958C1874.85 44.9231 1875.04 43.812 1874.98 42.5625ZM1890.05 33.2261C1892.07 33.1246 1893.73 33.6571 1895.04 34.8235C1896.35 35.9699 1897.07 37.6918 1897.18 39.9894L1897.67 49.7542L1894.95 49.8913L1894.48 40.5195C1894.4 38.8668 1893.92 37.628 1893.05 36.803C1892.18 35.9578 1891.03 35.5712 1889.6 35.6433C1888.15 35.7164 1887.01 36.2283 1886.19 37.1789C1885.39 38.1284 1885.03 39.4699 1885.12 41.2031L1885.58 50.3633L1882.83 50.5019L1881.99 33.935L1884.75 33.7964L1884.86 36.1545C1885.37 35.2806 1886.07 34.5885 1886.97 34.0783C1887.9 33.567 1888.92 33.2829 1890.05 33.2261Z" fill="white"/>
</svg>
