<svg width="74" height="74" viewBox="0 0 74 74" fill="none" xmlns="http://www.w3.org/2000/svg">
<rect width="74" height="74" rx="4" fill="#FC2D5F"/>
<path d="M51.8294 45.9255C50.6405 44.7357 49.2513 43.7645 47.7254 43.0566C49.8772 41.3134 51.2499 38.6535 51.2499 35.6706C51.2499 30.4078 46.8609 26.0901 41.598 26.1709C36.4158 26.2516 32.2405 30.4742 32.2405 35.6706C32.2405 38.6535 33.618 41.3134 35.765 43.0566C34.2389 43.764 32.8496 44.7352 31.661 45.9255C29.0675 48.5237 27.5951 51.9531 27.5001 55.6105C27.4988 55.6612 27.5077 55.7116 27.5262 55.7588C27.5447 55.806 27.5725 55.8491 27.6079 55.8854C27.6434 55.9217 27.6857 55.9505 27.7324 55.9702C27.7791 55.9899 27.8293 56 27.8801 56H30.54C30.7443 56 30.9153 55.8385 30.92 55.6343C31.0103 52.8793 32.1265 50.3002 34.0883 48.3432C35.0921 47.3341 36.2862 46.534 37.6013 45.9894C38.9164 45.4447 40.3265 45.1664 41.75 45.1703C44.6427 45.1703 47.3644 46.296 49.4117 48.3432C51.3687 50.3002 52.4849 52.8793 52.5799 55.6343C52.5847 55.8385 52.7556 56 52.9599 56H55.6199C55.6706 56 55.7208 55.9899 55.7675 55.9702C55.8143 55.9505 55.8566 55.9217 55.892 55.8854C55.9274 55.8491 55.9552 55.806 55.9737 55.7588C55.9923 55.7116 56.0011 55.6612 55.9999 55.6105C55.9049 51.9531 54.4324 48.5237 51.8294 45.9255ZM41.75 41.7504C40.1255 41.7504 38.596 41.1187 37.4512 39.9692C36.8768 39.3993 36.423 38.7194 36.1169 37.9703C35.8109 37.2211 35.6589 36.418 35.67 35.6089C35.6843 34.0509 36.3065 32.5452 37.3942 31.429C38.5342 30.2605 40.059 29.6098 41.6882 29.5908C43.2985 29.5765 44.8612 30.2035 46.0107 31.3292C47.1887 32.4834 47.8347 34.0271 47.8347 35.6706C47.8347 37.295 47.2029 38.8198 46.0534 39.9692C45.4895 40.5359 44.8188 40.985 44.0801 41.2908C43.3414 41.5965 42.5494 41.7527 41.75 41.7504ZM29.8513 36.9246C29.8085 36.5113 29.7848 36.0933 29.7848 35.6706C29.7848 34.9154 29.856 34.1791 29.989 33.4619C30.0223 33.2909 29.932 33.1152 29.7753 33.0439C29.1293 32.7542 28.5356 32.3552 28.0226 31.8517C27.4181 31.2656 26.9424 30.5599 26.6259 29.7797C26.3094 28.9995 26.159 28.1619 26.1843 27.3203C26.2271 25.7956 26.8398 24.3469 27.9086 23.2545C29.0818 22.0527 30.6588 21.3973 32.3355 21.4163C33.8508 21.4305 35.3138 22.0147 36.4205 23.0502C36.7957 23.4017 37.1187 23.7912 37.3895 24.2092C37.4845 24.3564 37.6697 24.4182 37.8312 24.3612C38.6672 24.0714 39.5507 23.8672 40.458 23.7722C40.724 23.7437 40.876 23.4587 40.7572 23.2212C39.2135 20.1671 36.0595 18.0581 32.4115 18.0011C27.1438 17.9204 22.7548 22.238 22.7548 27.4961C22.7548 30.479 24.1276 33.1389 26.2793 34.8821C24.7688 35.5803 23.3771 36.5446 22.1706 37.751C19.5676 40.3492 18.0951 43.7786 18.0001 47.4408C17.9989 47.4914 18.0077 47.5419 18.0263 47.5891C18.0448 47.6363 18.0726 47.6793 18.108 47.7156C18.1434 47.7519 18.1857 47.7807 18.2325 47.8004C18.2792 47.8201 18.3294 47.8303 18.3801 47.8302H21.0449C21.2491 47.8302 21.4201 47.6687 21.4248 47.4645C21.5151 44.7096 22.6313 42.1304 24.5931 40.1735C25.9896 38.777 27.6996 37.808 29.5663 37.3378C29.7515 37.2903 29.875 37.1146 29.8513 36.9246Z" fill="white"/>
</svg>
