<svg width="42" height="42" viewBox="0 0 42 42" fill="none" xmlns="http://www.w3.org/2000/svg">
<g clip-path="url(#clip0_2_33569)">
<rect x="5" y="4" width="32" height="35" fill="white"/>
<path d="M22.4041 20.2828L31.8556 33.8019H27.9767L20.264 22.7703V22.7696L19.1317 21.1502L10.1221 8.2627H14.001L21.2718 18.6634L22.4041 20.2828Z" fill="black"/>
<path d="M37.4618 0H4.53819C2.03188 0 0 2.03188 0 4.53819V37.4618C0 39.9681 2.03188 42 4.53819 42H37.4618C39.9681 42 42 39.9681 42 37.4618V4.53819C42 2.03188 39.9681 0 37.4618 0ZM26.7889 35.6168L18.9842 24.258L9.21262 35.6168H6.68714L17.8628 22.6266L6.68714 6.36161H15.2111L22.6016 17.1177L31.8546 6.36161H34.3801L23.7233 18.7494H23.7226L35.3129 35.6168H26.7889Z" fill="black"/>
</g>
<defs>
<clipPath id="clip0_2_33569">
<rect width="42" height="42" fill="white"/>
</clipPath>
</defs>
</svg>
