<svg width="42" height="42" viewBox="0 0 42 42" fill="none" xmlns="http://www.w3.org/2000/svg">
<g clip-path="url(#clip0_2_33586)">
<path d="M41.1347 10.9178C40.6505 9.11859 39.2319 7.70036 37.433 7.21586C34.1463 6.31641 20.9996 6.31641 20.9996 6.31641C20.9996 6.31641 7.85318 6.31641 4.56649 7.18158C2.80219 7.66575 1.34902 9.11892 0.864849 10.9178C0 14.2042 0 21.0198 0 21.0198C0 21.0198 0 27.8697 0.864849 31.1218C1.34934 32.9207 2.76758 34.3393 4.56681 34.8237C7.88778 35.7232 20.9999 35.7232 20.9999 35.7232C20.9999 35.7232 34.1463 35.7232 37.433 34.858C39.2322 34.3739 40.6505 32.9553 41.135 31.1564C41.9998 27.8697 41.9998 21.0544 41.9998 21.0544C41.9998 21.0544 42.0344 14.2042 41.1347 10.9178Z" fill="#FF0000"/>
<path d="M16.8135 27.3167L27.7457 21.0201L16.8135 14.7236V27.3167Z" fill="white"/>
</g>
<defs>
<clipPath id="clip0_2_33586">
<rect width="42" height="42" fill="white"/>
</clipPath>
</defs>
</svg>
